<?xml version="1.0" encoding="UTF-8"?> <svg xmlns="http://www.w3.org/2000/svg" id="Layer_1" version="1.1" viewBox="0 0 1200 1200"><defs><style> .st0 { fill: #8eba3f; } </style></defs><path class="st0" d="M292,612.9v530.9c0,10.4,8.4,18.8,18.8,18.8h578.4c10.4,0,18.8-8.4,18.8-18.8v-530.9c0-10.4-8.4-18.8-18.8-18.8H310.8c-10.4,0-18.8,8.4-18.8,18.8h0ZM329.5,631.6h540.9v493.4H329.5v-493.4Z"></path><path class="st0" d="M777.9,759.9h-360.5c-10.4,0-18.8,8.4-18.8,18.8v271.2c0,10.4,8.4,18.8,18.8,18.8h360.5c10.4,0,18.8-8.4,18.8-18.8v-271.2c0-10.4-8.4-18.8-18.8-18.8ZM759.2,1031.1h-323v-233.7h323v233.7Z"></path><path class="st0" d="M480.8,711.8c10.4,0,18.8-8.4,18.8-18.8s-8.4-18.8-18.8-18.8h-69.4c-10.4,0-18.8,8.4-18.8,18.8s8.4,18.8,18.8,18.8h69.4Z"></path><path class="st0" d="M563,711.8h69.4c10.4,0,18.8-8.4,18.8-18.8s-8.4-18.8-18.8-18.8h-69.4c-10.4,0-18.8,8.4-18.8,18.8s8.4,18.8,18.8,18.8Z"></path><path class="st0" d="M783.9,674.3h-69.4c-10.4,0-18.8,8.4-18.8,18.8s8.4,18.8,18.8,18.8h69.4c10.4,0,18.8-8.4,18.8-18.8s-8.4-18.8-18.8-18.8Z"></path><path class="st0" d="M719.3,37.5h-238.7c-10.4,0-18.8,8.4-18.8,18.8v175.6l-131.1,135.7-.2.2c-.8.8-1.2,1.8-1.8,2.7-.7,1-1.5,2-2.1,3.1-.9,2.2-1.5,4.6-1.5,7.1v93.2c0,10.4,8.4,18.8,18.8,18.8h511.8c10.4,0,18.8-8.4,18.8-18.8v-93.2c0-2.5-.5-4.9-1.5-7.1-.5-1.2-1.4-2.1-2.1-3.2-.6-.9-1-1.9-1.8-2.7l-.2-.2-131.1-135.7V56.3c0-10.4-8.3-18.8-18.7-18.8h0ZM362.9,455.2v-55.7h474.3v55.7h-474.3ZM811.7,362.1h-423.4l105.9-109.7c3.4-3.5,5.2-8.2,5.2-13V75s201.1,0,201.1,0v164.4c0,4.9,1.9,9.5,5.2,13l105.9,109.7h0Z"></path></svg> 