<?xml version="1.0" encoding="UTF-8"?> <svg xmlns="http://www.w3.org/2000/svg" id="Layer_1" version="1.1" viewBox="0 0 1200 1200"><defs><style> .st0 { fill: #8eba3f; } </style></defs><path class="st0" d="M1011.7,1050.8c2.9,1.7,6.1,2.5,9.4,2.5s6.5-.8,9.4-2.5l35.4-20.4c5.8-3.4,9.4-9.5,9.4-16.2v-40.8c0-6.7-3.6-12.9-9.4-16.2l-35.4-20.4c-5.8-3.3-13-3.3-18.8,0l-35.3,20.4c-5.8,3.4-9.4,9.5-9.4,16.2v40.8c0,6.7,3.6,12.9,9.4,16.2l35.3,20.4ZM1004.5,984.1l16.6-9.6,16.6,9.6v19.2l-16.6,9.6-16.6-9.6v-19.2Z"></path><path class="st0" d="M1134.4,917.5l-103.9-60c-5.8-3.3-13-3.3-18.8,0l-99.6,57.5h-250.5c-29.1-55.1-86.3-90-149.2-90s-127.7,39.7-154.6,101.2c-2.5,5.8-2,12.5,1.5,17.8,3.5,5.3,9.4,8.5,15.7,8.5h137.4c22.7,0,41.2,18.5,41.2,41.2s-18.5,41.2-41.2,41.2h-137.4c-6.3,0-12.2,3.2-15.7,8.5-3.5,5.3-4,12-1.5,17.8,26.9,61.5,87.6,101.2,154.6,101.2s120.1-34.9,149.2-90h125.9c10.4,0,18.8-8.4,18.8-18.8s-8.4-18.8-18.8-18.8h-137.6c-7.4,0-14.2,4.4-17.2,11.2-20.9,47.9-68.1,78.8-120.3,78.8s-80.5-19.9-105-52.5h105c43.4,0,78.8-35.3,78.8-78.8s-35.3-78.8-78.8-78.8h-105c24.4-32.6,63.1-52.5,105-52.5s99.3,30.9,120.3,78.8c3,6.8,9.7,11.2,17.2,11.2h267.3c3.3,0,6.5-.9,9.4-2.5l94.5-54.6,85.2,49.2v98.4l-85.2,49.2-94.5-54.6c-2.9-1.6-6.1-2.5-9.4-2.5h-54.7c-10.4,0-18.8,8.4-18.8,18.8s8.4,18.8,18.8,18.8h49.6l99.6,57.5c5.8,3.3,13,3.3,18.8,0l103.9-60c5.8-3.4,9.4-9.5,9.4-16.2v-120c0-6.7-3.6-12.9-9.4-16.2h0Z"></path><path class="st0" d="M243.8,37.5H93.8c-31,0-56.2,25.2-56.2,56.2v262.5c0,4.1,1.3,8,3.8,11.2l33.8,45h-18.8c-10.4,0-18.8,8.4-18.8,18.8v75c0,10.4,8.4,18.8,18.8,18.8h56.2v375c0,2.9.7,5.8,2,8.4l37.5,75c3.2,6.4,9.7,10.4,16.8,10.4s13.6-4,16.8-10.4l37.5-75c1.3-2.6,2-5.5,2-8.4v-187.5c0-10.4-8.4-18.8-18.8-18.8s-18.8,8.4-18.8,18.8v183.1l-18.8,37.5-18.8-37.5v-370.6h37.5v112.5c0,10.4,8.4,18.8,18.8,18.8s18.8-8.4,18.8-18.8v-112.5h56.3c10.4,0,18.8-8.4,18.8-18.8v-75c0-10.4-8.4-18.8-18.8-18.8h-18.8l33.8-45c2.4-3.2,3.8-7.2,3.8-11.2V93.8c0-31-25.2-56.2-56.2-56.2h0ZM187.5,75v337.5h-37.5V75h37.5ZM75,93.8c0-10.4,8.4-18.8,18.8-18.8h18.8v325l-37.5-50V93.8ZM262.5,487.5H75v-37.5h187.5v37.5ZM262.5,350l-37.5,50V75h18.8c10.3,0,18.8,8.4,18.8,18.8v256.3Z"></path><path class="st0" d="M618.8,206.2c0,10.4-8.4,18.8-18.8,18.8s-18.8-8.4-18.8-18.8,8.4-18.8,18.8-18.8,18.8,8.4,18.8,18.8Z"></path><path class="st0" d="M956.2,206.2c0,10.4-8.4,18.8-18.8,18.8s-18.8-8.4-18.8-18.8,8.4-18.8,18.8-18.8,18.8,8.4,18.8,18.8Z"></path><path class="st0" d="M618.8,393.8c0,10.4-8.4,18.8-18.8,18.8s-18.8-8.4-18.8-18.8,8.4-18.8,18.8-18.8,18.8,8.4,18.8,18.8Z"></path><path class="st0" d="M1125,150h18.8c10.4,0,18.8-8.4,18.8-18.8V56.2c0-10.4-8.4-18.8-18.8-18.8h-375c-10.4,0-18.8,8.4-18.8,18.8s8.4,18.8,18.8,18.8h356.2v37.5H412.5v-37.5h281.2c10.4,0,18.8-8.4,18.8-18.8s-8.4-18.8-18.8-18.8h-300c-10.4,0-18.8,8.4-18.8,18.8v75c0,10.4,8.4,18.8,18.8,18.8h18.8v525h-18.8c-10.4,0-18.8,8.4-18.8,18.8v75c0,10.4,8.4,18.8,18.8,18.8h750c10.4,0,18.8-8.4,18.8-18.8s-8.4-18.8-18.8-18.8H412.5v-37.5h731.2c10.4,0,18.8-8.4,18.8-18.8s-8.4-18.8-18.8-18.8h-18.8V150ZM450,337.5h300v150h-300v-150ZM787.5,337.5h300v150h-300v-150ZM1087.5,300h-300v-150h300v150ZM750,150v150h-300v-150h300ZM450,525h300v150h-300v-150ZM787.5,675v-150h300v150h-300Z"></path><path class="st0" d="M956.2,393.8c0,10.4-8.4,18.8-18.8,18.8s-18.8-8.4-18.8-18.8,8.4-18.8,18.8-18.8,18.8,8.4,18.8,18.8Z"></path><path class="st0" d="M618.8,581.2c0,10.4-8.4,18.8-18.8,18.8s-18.8-8.4-18.8-18.8,8.4-18.8,18.8-18.8,18.8,8.4,18.8,18.8Z"></path><path class="st0" d="M956.2,581.2c0,10.4-8.4,18.8-18.8,18.8s-18.8-8.4-18.8-18.8,8.4-18.8,18.8-18.8,18.8,8.4,18.8,18.8Z"></path></svg> 