<?xml version="1.0" encoding="UTF-8"?> <svg xmlns="http://www.w3.org/2000/svg" id="Layer_1" version="1.1" viewBox="0 0 1200 1200"><defs><style> .st0 { fill: #8eba3f; } </style></defs><path class="st0" d="M1068,317h-286.4c39-25.9,64.9-70.2,64.9-120.4v-64.6c0-6.6-5.4-12-12-12h-468.9c-6.6,0-12,5.4-12,12v64.6c0,50.2,25.8,94.5,64.9,120.4H132c-6.6,0-12,5.4-12,12v569c0,6.6,5.4,12,12,12h142.8v158c0,6.6,5.4,12,12,12s12-5.4,12-12v-158h602.5v158c0,6.6,5.4,12,12,12s12-5.4,12-12v-158h142.8c6.6,0,12-5.4,12-12V329c0-6.6-5.4-12-12-12h0ZM377.6,196.6v-52.6h444.9v52.6c0,66.4-54,120.4-120.4,120.4h-204.1c-66.4,0-120.4-54-120.4-120.4h0ZM588,341v260.8H144v-260.8h444ZM144,625.8h444v260.2H144v-260.2ZM1056,886h-444V341h444v545Z"></path><path class="st0" d="M979.6,666.7c6.6,0,12-5.4,12-12v-81.8c0-6.6-5.4-12-12-12s-12,5.4-12,12v81.8c0,6.6,5.4,12,12,12Z"></path></svg> 