<?xml version="1.0" encoding="UTF-8"?> <svg xmlns="http://www.w3.org/2000/svg" id="Layer_1" version="1.1" viewBox="0 0 1200 1200"><defs><style> .st0 { fill: #8eba3f; } </style></defs><path class="st0" d="M1031.5,143.1h16.9c7.4,0,13.9-4.8,16.1-11.8l16.9-50.8c1.6-5.1.7-10.7-2.5-15.1s-8.2-6.9-13.6-6.9H134.6c-5.4,0-10.4,2.6-13.6,6.9-3.2,4.4-4.1,9.9-2.5,15.1l16.9,50.8c2.2,7,8.7,11.8,16.1,11.8h16.9v854.6h-16.9c-7.4,0-13.9,4.8-16.1,11.8l-16.9,50.8c-1.6,5.1-.7,10.7,2.5,15.1s8.2,6.9,13.6,6.9h74.5l28.8,50.8c3,5.2,8.4,8.4,14.4,8.5h85.5c6,0,11.4-3.3,14.4-8.5l28.8-50.8h437.4l28.8,50.8c3,5.2,8.4,8.4,14.4,8.5h84.6c6,0,11.4-3.3,14.4-8.5l28.8-50.8h76.1c5.4,0,10.4-2.6,13.6-6.9,3.2-4.4,4.1-9.9,2.5-15.1l-16.9-50.8c-2.2-7-8.7-11.8-16.1-11.8h-16.9V143.1ZM803,303.9l97.3,50.8h-194.6l97.3-50.8ZM786.1,253.1v21.2l-100.7,52.5c-14.5,6-22.5,21.7-19,37,3.6,15.3,17.6,25.8,33.3,24.8h205.6c15.9,1.5,30.5-8.8,34.3-24.3s-4.3-31.4-19-37.4l-100.7-51.6v-22c0-3-1-5.9-2.5-8.5h180.2v440h-380.7V244.6h171.8c-1.6,2.5-2.5,5.5-2.5,8.5h0ZM616.9,718.5h380.7v25.4h-380.7v-25.4ZM997.6,210.8h-380.7v-67.7h380.7v67.7ZM158.3,92.3h883.3l-5.9,16.9H163.4l-5.1-16.9ZM202.3,143.1h380.7v854.6H202.3V143.1ZM327.5,1107.6h-64.3l-14.4-25.4h93.9l-15.2,25.4ZM936.7,1107.6h-64.3l-14.4-25.4h93.9l-15.2,25.4ZM1041.6,1048.4H158.3l5.9-16.9h872.3l5.1,16.9ZM616.9,997.6v-220h380.7v220h-380.7Z"></path><path class="st0" d="M893.9,840.5h-191.5c-27.1,0-49,21.9-49,49s21.9,49,49,49h167.4c9.8,0,17.8-8,17.8-17.8s-8-17.8-17.8-17.8h-167.4c-7.4,0-13.4-6-13.4-13.4s6-13.4,13.4-13.4h191.5c24.6,0,44.5,19.9,44.5,44.5s-19.9,44.5-44.5,44.5h-222.7c-9.8,0-17.8,8-17.8,17.8s8,17.8,17.8,17.8h222.7c44.3,0,80.2-35.9,80.2-80.2s-35.9-80.2-80.2-80.2Z"></path><path class="st0" d="M702.4,608.9h167.4c9.8,0,17.8-8,17.8-17.8s-8-17.8-17.8-17.8h-167.4c-7.4,0-13.4-6-13.4-13.4s6-13.4,13.4-13.4h191.5c24.6,0,44.5,19.9,44.5,44.5s-19.9,44.5-44.5,44.5h-222.7c-9.8,0-17.8,8-17.8,17.8s8,17.8,17.8,17.8h222.7c44.3,0,80.2-35.9,80.2-80.2s-35.9-80.2-80.2-80.2h-191.5c-27.1,0-49,21.9-49,49s21.9,49,49,49Z"></path><path class="st0" d="M528.7,439.7h-35.6c-9.8,0-17.8,8-17.8,17.8s8,17.8,17.8,17.8h17.8v106.9h-17.8c-9.8,0-17.8,8-17.8,17.8s8,17.8,17.8,17.8h35.6c4.7,0,9.3-1.9,12.6-5.2,3.3-3.3,5.2-7.9,5.2-12.6v-142.5c0-4.7-1.9-9.3-5.2-12.6-3.3-3.3-7.9-5.2-12.6-5.2h0Z"></path></svg> 