<?xml version="1.0" encoding="UTF-8"?> <svg xmlns="http://www.w3.org/2000/svg" id="Layer_1" version="1.1" viewBox="0 0 1200 1200"><defs><style> .st0 { fill: #8eba3f; } </style></defs><path class="st0" d="M81,1137.5c-6.6-2.7-9.6-5.9-13.9-14.2-3.3-6.5-3.9-9.9-5-30-.7-12.5-1.2-31.2-1.1-41.7,0-10.5,0-34.5-.3-53.4-.2-18.9-.3-46.1-.2-60.3.1-24,.2-68.1.2-106.1,0-8.6.5-105.9,1-216.1,1.2-235.5,1.2-217.9,0-246.5-.6-13.3-.4-27,.5-33.3.9-6.6,1-14.2.2-19.8-2.3-16.5-2.1-76.3.5-112.6,2.3-33.8,2.3-35.2-.4-48.2-2.4-11.6-2.8-17.5-2.1-42,.9-33.8,2.4-38.6,14.4-46,7-4.3,7.4-4.3,36-5.4,46.9-1.8,119.8-1.8,144.8,0,16.6,1.2,38.2,1.2,76.5.1,29.3-.8,92.7-1.4,140.8-1.2,48.1.1,117.3,0,153.7-.2,79.1-.6,145.1-.8,203-.4,23.5,0,93,.2,154.5.3,78.4,0,113.6.6,117.9,1.7,8.2,2.2,15.2,8.3,20.2,17.5l4.2,7.6.7,111.4c.4,61.2.8,115,.8,119.4s-.4,24.2-1,43.9c-.7,22-.5,40.1.4,47,.9,7.5.9,17.6,0,30.7-1.7,22.4-1.7,20.9-1.5,97.1,0,31.4,0,69.2,0,84.1-.2,29.5-.2,75.4,0,95.1.6,74.4.5,133.4-.2,134.5-.5.8.2,12.1,1.4,25.2,1.6,17.2,1.9,26.9.9,34.8-.8,6.2-1.1,52.6-.7,107.9l.7,97-3.2,4.7c-7.1,10.3-13.6,15.8-21.9,18.1-7.3,2.1-16.6,2.2-90.5,1-45.3-.7-90.6-1-100.7-.6-22.6.9-71,.9-107.4,0-15-.4-182.6-.3-372.6,0-283.5.6-346.2.3-350-1.3h0ZM401.6,1101.3c6.7-2.7,14.8-10.5,27.8-26.7,6.3-7.8,15.1-18.7,19.5-24.1,9.9-12.3,15-16.4,35.9-28.4,28.3-16.3,48.2-32.9,53.1-44.1,4.5-10.5,12.8-32.4,12.8-34.1,0-3.7,12-31,16.4-37.5,17.2-25.2,44.1-52.7,65.2-67.1,23-15.5,42-23.9,72-31.8,40.4-10.6,70.9-20.3,81.6-25.8,6.1-3.2,16.7-9.9,23.6-15.1,14.9-11.1,42.8-39.4,47-47.5,2.9-5.6,11.3-36.2,14.8-53.6,4.7-23.5,11.2-41.5,27.2-74.6,11.8-24.4,26.8-45.9,41.1-58.9,14.1-12.8,40-26.5,70.7-37.5,30.3-10.9,47.2-20.6,64.2-36.9,15.2-14.6,16.4-18.3,15.8-50.8-.2-14.6-.3-52.4-.1-84.1.3-57.4,0-61.5-4.6-61.5s-21.8,10.3-35.3,19.4c-16.9,11.4-43.2,37.5-53.6,53.2-4.3,6.5-11.3,19.4-15.6,28.6-10.3,22.2-17.2,31.9-36.7,52-24.4,25-51.7,41.9-81.8,50.6-15.9,4.5-28.3,6.3-60.3,8.3-32.4,2.1-44.9,4.5-59.4,11.8-19.8,9.8-46.4,30.8-57.2,45-9.8,13-22.1,38.1-28.3,57.6-10,32.2-20.9,49.3-55.2,87-21.3,23.4-25,28.1-38.3,47.7-12.2,18.2-32.4,39.9-46.8,50.4-12.5,9.1-38.9,23.7-53.2,29.3-6.1,2.4-24.8,8.3-41.6,13.3-33.8,9.8-41.3,12.7-65,24.7-13.4,6.8-18,10-26.8,19.1-11.6,11.9-25.5,30.2-30.1,39.8-1.6,3.4-4.5,13-6.4,21.4-7.9,34.7-18.4,54.7-40.3,76.4-18.4,18.2-26,24-57.6,43.4-16.5,10.2-32.8,20.7-36.2,23.4-8.2,6.8-28.7,34.8-27.6,37.8,1.2,3,33.7,3.5,166.8,2.6,75-.5,98.9-1.1,102.4-2.5h0ZM1022.9,1102.2l53.8-.9,6.2-4.1c3.4-2.2,6.8-5.7,7.5-7.6.8-2.2,1-43.3.5-102.7-.5-54.5-.9-118.4-1-141.8-.1-30.5-.7-43.2-2-44.4-3-3-11.3-.2-23.4,7.6-29.7,19.3-43.9,37.8-64.7,84.4-12.1,27.2-17.3,35.5-29.6,47.2-11.4,11-24.7,19.9-43.9,29.5-16.8,8.3-24.2,10.5-50.3,14.2-24,3.4-33.8,6.3-53,15.7-25.1,12.3-33.8,20.7-59.7,57.5-6,8.6-15.7,19.5-25.4,28.6-10.1,9.6-15.3,15.4-14.6,16.6.9,1.4,16.7,1.6,69,1.1,37.4-.3,78.1,0,90.7.5,12.5.6,37,.8,54.4.3s55.8-1.2,85.4-1.7h0ZM684.6,1099.5c18.5-7.5,48.3-35.1,66.2-61.1,19.9-29.1,41.6-48.6,66.5-59.8,15.7-7.1,27.4-10.6,49.7-14.8,31.4-5.9,38.2-7.7,50.7-13.7,28.4-13.5,50.1-35.2,59.6-59.4,6.2-16,18.8-40.8,26.6-52.5,4.2-6.3,14.3-18.4,22.4-26.7,11.7-12,17.9-17.1,30.3-24.6,18.7-11.2,26-16.8,30.9-23.7,4.3-6,4,3,2.9-97.7-.5-49-.8-54.1-3-54.6-1.4-.2-6.6,2.6-11.7,6.3s-16.1,10-24.5,13.9c-22,10.3-38.8,21-47.9,30.5-12.7,13.3-18.4,26.3-31.1,71.8-10.8,38.6-45.1,80.1-84.3,101.9-11.2,6.3-39.8,18.4-52.5,22.3-5.1,1.6-21.1,5.2-35.5,8.1-35.8,7.1-48.4,10.9-78.5,24.1-40.4,17.6-58.1,29.2-74.6,48.3-11.9,13.9-18.4,27.3-23.2,47.7-4.4,18.5-7.4,27.2-14.8,42-10.7,21.6-31.2,43.7-56.4,60.9-22.5,15.3-23.8,15,57.2,14.4,65.5-.4,67.1-.5,75-3.7h0ZM502.8,1097c18.1-14.3,25.3-19.3,40.5-28.2,19.1-11.1,29.9-20.9,39.9-36.2,11-16.7,14-23.8,18.8-45.1,7.9-35.1,15.8-50.5,36-70.5,7.4-7.3,18.7-16.7,25.2-21,15.3-10.1,42.1-22.9,66.9-32,20.2-7.4,27.1-9.3,70.6-18.8,26.7-5.9,44.5-11.9,66.9-22.7,24.7-11.9,50.7-35.2,67.6-60.5,8.2-12.3,8.5-13.1,22.8-60.1,9.3-30.4,13.7-38.9,28.1-54,10.1-10.6,13.7-13.2,36-25.5,43.6-24.1,57.1-34.1,64.2-47.6,3-5.6,3.1-8.2,3.4-49.1.2-40.9-.3-46.8-3.9-46.8s-8.4,4.9-17.2,10.8c-20.5,14-27.4,17.3-52.8,25.9-34.2,11.6-45.5,18.3-68.6,40.3-16,15.3-18.2,18.3-29.4,40.8-12.7,25.5-17.2,38.3-28.4,82.5-5.6,22.1-11.2,40.9-13.8,46.1-6,12.2-18.6,26.5-37.5,42.8-34.5,29.6-50.6,37.2-120.6,56.6-56.1,15.5-92.1,39.2-124.7,82-12.9,17-18.8,29.2-25.2,52.6-7.4,26.6-10.6,32.5-27.2,48.9-10.5,10.4-16.9,15.4-25.1,19.6-30.5,15.8-53.7,35.4-66,56-10.6,17.7-9.8,18.3,22.7,17.7l25.1-.4,5.6-4.4ZM108.7,1093.7c2.2-2.2,7.9-9.3,12.8-15.8,18.2-23.8,34.9-37.1,85.2-68,6-3.7,17.2-13,25.7-21.4,21.7-21.4,35.3-43.5,38.9-63,5.8-32,19.9-59,41.3-78.6,23.6-21.7,43-32.7,72.7-41,34.3-9.6,72.5-23.2,89.7-31.8,26.2-13.1,50.2-32.4,65.4-52.5,7.7-10.2,8.7-12.1,6.9-13.9-1.8-1.8-3.9-1.2-15.2,4-7.2,3.3-22.7,9.4-34.4,13.5-18.7,6.4-23.2,7.5-36,8-13.2.7-16.5.2-32.3-4-22.1-5.9-51.6-7.5-66.6-3.8-15.9,4.1-32.8,11.3-44.3,19.1-34.8,23.5-41.7,28.7-52.5,39.5-6.7,6.7-17.2,19.8-24.2,30.1-16.5,24.4-38.4,51.4-50.7,62.5-6.5,6-15,11.7-24.8,16.6-32.8,16.6-57.9,37.2-66.4,54.6l-4.3,8.6v68.2c-.2,37.5.3,69.3.9,70.7,1.8,3.8,7.8,3.1,12.2-1.5h0ZM108.4,903.4c11.5-8.9,23.5-16.2,45.9-28.2,26.3-14.1,46.6-34.5,67.5-68.1,10.8-17.4,26.7-37.8,35.7-45.8,9-8,35.5-25.3,56-36.7,28-15.5,53-22.4,81.3-22.3,14,0,17,.6,31.6,5.5,27.8,9.5,45.8,7.4,91.9-10.6,48.6-19,80.2-41.2,99.2-69.8,11-16.6,14.2-23.4,22.1-48.3,11.9-37.4,19.5-50.8,42.7-75,16.1-16.8,31.2-27.5,55.3-39,21.7-10.4,31-12.5,55.1-12.5,21.8,0,52.3-3.3,63.2-6.8,10.2-3.3,37.9-17.2,48.6-24.4,12.5-8.4,45.4-42.4,49.9-51.4,2-4,8.9-18.2,15.2-31.5,12.5-26,23.9-42.6,37.8-55.3,8.7-7.9,30.9-22.2,50.5-32.5,13.4-7,27-18.2,30.7-25.1,3.4-6.7,3.5-108.9,0-117-6.9-16.4-31.1-14.7-51.9,3.6-5.8,5.1-17.7,15.7-26.4,23.6-34.6,31.4-55,41.5-92.7,46.1-15,1.9-30.6,7-51.3,17-23.5,11.3-34.2,20.5-53.8,46.5-36,47.7-71,68.7-151.3,90.9-17.2,4.8-67.3,24-84,32.3-21.8,10.8-56.6,39-71.7,58.1-4,5-13.3,20.9-20.7,35.2s-15.8,29.3-18.7,33.2c-10.9,14.8-31,29.5-57.9,42.6-29,14.1-40.5,16.7-82.5,18.7-24.7,1.2-26.5,1.5-44.8,7.5-20.9,6.8-47.6,19.7-56.5,27.3-8.5,7.2-18.8,23.2-23.5,36.7-4.8,13.6-14.7,32.6-24.4,47.2s-24.2,29.4-40.2,41.3c-21.2,15.7-32.3,25.8-36.8,33.2-3.8,6.5-3.9,7.3-3.9,30.8s.2,31.1.5,39.5c.3,8.4,0,31.2-.6,50.7-.7,19.4-.8,36.3-.2,37.6,1.4,3.6,3.2,3,13.2-4.7h0ZM121,700c34.4-27.5,46.7-43.7,62.1-81.7,10.6-26.3,20.8-38.4,43.5-51.8,15-8.8,45-21.9,68.6-30,35.3-12,59.9-26.6,79-47,14.8-15.7,24-29.4,39.7-58.8,6.6-12.4,14.1-25.6,16.6-29.2,2.5-3.7,15.5-17.6,28.9-31,38.3-38.2,61.1-53.2,95-62.6,23.2-6.5,56.7-18.3,72.5-25.7,31.3-14.7,50.5-30.9,75-63.6,27.8-37.2,52.5-57.3,111.5-90.8,43-24.4,45.1-25.9,44.6-28.8-.8-3.8-9.3-4.3-67.4-3.8-28.7.2-104.8.8-169.1,1.3-86.7.7-117.8,1.4-120.6,2.7-6.5,3.1-7.4,6.9-6.4,29.5.8,18.7.5,21.8-2.4,31.6-6.5,21.7-17.3,37.3-42.2,61.4-16.4,15.8-31.3,26.8-46.9,34.6-13.1,6.6-49.4,22.5-66.2,29-18.1,7-38.7,19.2-61.7,36.5-25.2,18.9-32.6,28.3-60.5,77-35,60.9-42.6,69.8-79.8,92.7-17.2,10.6-28.8,20.6-35.4,30.7l-3.8,6,.3,94.3c.2,51.9.4,94.5.4,94.7.3,1.9,6.2-2.2,24.8-17.1h0ZM384.7,528.7c11.3-3.8,27.5-11.9,38-18.9,21.1-14.2,31.7-27.7,47.5-60,17.2-35.2,33-53,73.1-82.5,27.1-20,65.6-36.1,130.2-54.8,22.5-6.5,51.8-20,75-34.5,19.2-12,24.6-16.8,37-33.2,29.2-38.4,44.3-52.1,73.4-66.6,14.8-7.4,26.9-11,52.2-15.6,11-2,24.5-5,30.1-6.8,22.3-6.8,46.6-22.2,71.3-45.2,11.5-10.8,14.3-14.1,13-15.6-3.2-3.8-75.1-2.1-104.2,2.5-20.3,3.2-54.8,19.5-98.2,46.4-54,33.4-76.2,52.3-104.6,88.7-21,27-34.1,40.1-51.6,51.8-22.6,15-38.7,21.6-108.1,44.1-20.7,6.7-25.3,8.8-37.5,17.1-32.9,22.4-62.8,50.5-77,72.3-4.4,6.7-12.8,21.1-18.6,31.9-14.9,27.4-24.3,40.3-44.6,61-9.6,9.8-17.1,18.5-16.5,19.4,1.5,2.5,10.4,1.9,20.2-1.4h0ZM124.8,472.9c36.8-24.6,45.1-34.6,78.8-94.1,23.9-42.2,29.6-49.9,50.7-68.3,23.1-20.2,46.1-33.1,90.4-50.8,12.6-5,28.1-11.7,34.6-14.9,17.4-8.6,42.8-26,53.8-36.8,11.3-11.1,29.3-35.6,34.9-47.5,3.6-7.7,3.9-9.9,3.9-26.7,0-26.7-3.6-32.1-24-36.4-11.1-2.3-70.5-2.2-75.3.2-3.7,1.8-3.7,2.1-4.6,26.7-1.1,28.5-2.9,36.8-12,54-4.8,9.1-9.6,15.2-21.6,27.2-16.7,16.7-28.8,25-58.8,40.2-16.2,8.2-17.9,9.5-36.8,28.5-10.9,11-25.5,24.3-32.3,29.6-15,11.5-28.5,25.2-41.6,42.2-11.5,15-17.4,20-43.7,37.5-10.9,7.3-21.2,14.7-22.8,16.5-2.8,3-3,5.6-3.4,44.2-.5,40,0,45,4.2,45s12.2-7.4,25.6-16.3h0ZM113.8,364.8c16.1-10.4,30.7-24,47.8-44.5,15.3-18.3,23-25.6,39.8-37.8,9.6-6.9,16.7-13.7,25.4-24.2,13.3-16.1,18.2-20,37.8-29.8,16.7-8.3,47.5-29.9,58.1-40.5,8.9-9,16.9-22.6,20-34.2,1.2-4.5,2-15.2,2-27,0-20.9-1.5-27-7.4-28.9-3.2-1-87.3-2.3-175-2.7-72.3-.3-66.8-4.5-67.1,50.2-.7,114.8-.7,143.6,0,182.4.7,40.3,1.1,45.8,3.7,45.8s7.3-4,15-8.9h0Z"></path></svg> 