<?xml version="1.0" encoding="UTF-8"?> <svg xmlns="http://www.w3.org/2000/svg" id="Layer_1" version="1.1" viewBox="0 0 1200 1200"><defs><style> .st0 { fill: #8eba3f; fill-rule: evenodd; } </style></defs><path class="st0" d="M1038.3,1012.3H161.7c-57.8,0-104.9-52.3-104.9-116.5V188.3c0-64.3,47-116.5,104.9-116.5h876.6c57.8,0,104.9,52.3,104.9,116.5v707.5c0,64.3-47,116.5-104.9,116.5h0ZM161.7,102.5c-42.6,0-77.3,38.5-77.3,85.9v707.5c0,47.3,34.7,85.9,77.3,85.9h876.6c42.6,0,77.3-38.5,77.3-85.9V188.3c0-47.3-34.7-85.9-77.3-85.9H161.7Z"></path><path class="st0" d="M1038.3,941.9H161.7c-22.9,0-41.5-20.7-41.5-46.1V188.3c0-25.4,18.6-46.1,41.5-46.1h876.6c22.9,0,41.5,20.7,41.5,46.1v707.5c0,25.4-18.6,46.1-41.5,46.1ZM161.7,172.9c-7.5,0-13.9,7.1-13.9,15.4v707.5c0,8.3,6.4,15.4,13.9,15.4h876.6c7.5,0,13.9-7.1,13.9-15.4V188.3c0-8.3-6.4-15.4-13.9-15.4H161.7Z"></path><path class="st0" d="M430.2,1128.2h-175.2c-25.7,0-46.7-23.2-46.7-51.8v-79.3c0-8.5,6.2-15.3,13.8-15.3h240.9c7.6,0,13.8,6.8,13.8,15.3v79.3c0,28.6-20.9,51.8-46.7,51.8h0ZM235.9,1012.4v64c0,11.7,8.6,21.2,19.1,21.2h175.2c10.5,0,19.1-9.5,19.1-21.2v-64h-213.4Z"></path><path class="st0" d="M945,1128.2h-175.2c-25.7,0-46.6-23.2-46.6-51.8v-79.3c0-8.5,6.2-15.3,13.8-15.3h240.9c7.6,0,13.8,6.8,13.8,15.3v79.3c0,28.6-20.9,51.8-46.7,51.8h0ZM750.7,1012.4v64c0,11.7,8.6,21.2,19.1,21.2h175.2c10.5,0,19.1-9.5,19.1-21.2v-64h-213.4Z"></path><path class="st0" d="M1065.9,557.4H134c-7.6,0-13.8-6.8-13.8-15.3s6.2-15.3,13.8-15.3h932c7.6,0,13.8,6.8,13.8,15.3s-6.2,15.3-13.8,15.3Z"></path><path class="st0" d="M686.1,557.4c-6.2,0-11.9-4.7-13.4-11.8-1.8-8.2,2.8-16.5,10.2-18.5,36.1-9.6,45.3-4,42.2-33.2-3.5-32.9-23.1-66.1-59-66.6-27.2,3.4-42.7.1-57.6-12.7-3.7-3.1-7.5-6.4-11.4-9.4l-84.2-63.7c-.9-.7-13-8.8-24.4-5.9-6.2,1.6-11.3,6.3-15.9,14.4-2,3.9-17,31.5-43.5,35.5-8.7,1.3-18.5-1.5-28.8-4.5-17.7-5.2-31.1-8.2-39.7-1-18.2,45.7-53.7,110-16.8,151,5.4,6,5.4,15.7,0,21.7-5.4,6-14.1,6-19.5,0-25.5-28.4-30.9-35.3-15.9-105.5,10.6-49.6,27.5-81.2,28.3-82.9.7-1.7,1.7-3.2,2.9-4.5,20.3-22.2,47.7-14.2,67.7-8.4,6.6,1.9,14.8,4.3,18.1,3.8,11.6-1.8,20.8-15.3,23.3-20.3,0-.1.2-.4.3-.6,8.4-15.4,20-25.3,33.7-28.6,23-5.7,43.3,8.6,45.5,10.3l84.5,63.8c4.7,3.5,8.8,7,12.8,10.5,13.2,11.2,21.9,8.7,38.4,6.5.5,0,1.1,0,1.7,0,53.1,0,82.4,48.5,87.2,93.7,4.8,45-13,53.3-63.2,66.6-1.1.3-2.2.4-3.2.4h0Z"></path><path class="st0" d="M735.1,488.4h-417.5c-7.6,0-13.8-6.8-13.8-15.3s6.2-15.3,13.8-15.3h417.5c7.6,0,13.8,6.8,13.8,15.3s-6.2,15.3-13.8,15.3Z"></path><path class="st0" d="M832.8,941.9c-6.2,0-11.9-4.7-13.4-11.8-1.8-8.2,2.8-16.5,10.2-18.5,35.9-9.5,45.2-11,42.2-39.3-3.4-32.2-23-64.6-59.1-65.1-27.2,3.4-42.7.1-57.6-12.7-3.7-3.1-7.5-6.4-11.5-9.4l-84.2-63.7c-.9-.7-13-8.8-24.4-5.9-6.2,1.6-11.3,6.3-15.9,14.4-2,3.9-17,31.5-43.5,35.5-8.7,1.3-18.5-1.5-28.8-4.5-17.8-5.2-31.2-8.3-39.8-.9-18.9,44.5-56.3,114.7-19.4,155.6,5.4,6,5.4,15.7,0,21.7-5.4,6-14.1,6-19.5,0-25.6-28.5-30.5-43-14.4-112.1,11.3-48.8,29-79.6,29.7-81.3.7-1.6,1.6-3,2.7-4.2,20.3-22.2,47.7-14.2,67.7-8.4,6.6,1.9,14.8,4.3,18.1,3.8,13.8-2.1,23.2-20.1,23.2-20.2s.2-.4.3-.6c8.4-15.4,20-25.3,33.7-28.6,23-5.7,43.3,8.6,45.5,10.3l84.5,63.8c4.7,3.5,8.8,7,12.8,10.5,13.2,11.2,21.9,8.7,38.4,6.5.5,0,1.1,0,1.7,0,53.2,0,82.5,47.8,87.2,92.2,4.6,44.1-13.1,59.5-63.2,72.7-1.1.3-2.2.4-3.2.4h0Z"></path><path class="st0" d="M882.2,868.2h-419.9c-7.6,0-13.8-6.8-13.8-15.3s6.2-15.3,13.8-15.3h419.9c7.6,0,13.8,6.8,13.8,15.3s-6.2,15.3-13.8,15.3Z"></path></svg> 