<?xml version="1.0" encoding="UTF-8"?> <svg xmlns="http://www.w3.org/2000/svg" id="Layer_1" version="1.1" viewBox="0 0 1200 1200"><defs><style> .st0 { fill: #8eba3f; fill-rule: evenodd; } </style></defs><path class="st0" d="M407.3,646.8l-253.2,220.6c-26.6,23-42.2,56-43.6,91.1-1.3,35,12.2,69,37.1,93.8h0c24.7,24.8,58.7,38.2,93.8,37.1s67.9-16.9,91.1-43.3l220.8-253.7c146.2,17,292-33.7,396.3-137.7,69.2-69.4,134.6-134.8,134.6-134.8,6.8-6.7,6.8-17.3,0-23.9L704.3,115.5c-6.8-6.6-17.5-6.6-23.9,0,0,0-65.8,65.6-135,135.1-104.3,104-154.9,250-138.1,396.1h0ZM424.5,676.6l98.9,98.8-216.4,248.4c-16.9,19.4-40.9,31-66.8,31.8-25.6.9-50.6-8.9-68.5-27.1,0,0-.4,0-.4,0-18.2-18.2-28-43.1-27-68.8,1-25.6,12.5-49.9,31.7-66.8l248.4-216.3h0ZM280.4,919.4c-22-22.1-57.7-22.1-79.6,0-22.3,22-22.3,57.8,0,79.8,22,22,57.7,22,79.6,0,22.3-22.1,22.3-57.9,0-79.8h0ZM256.7,943.3c8.8,8.9,8.8,23.3,0,32.1-9.1,8.8-23.3,8.8-32,0-9.1-8.8-9.1-23.2,0-32.1,8.8-8.8,22.9-8.8,32,0ZM554.1,758.3l-112.8-112.8c-16.9-136.7,30.4-273.5,127.5-371l123.2-123.2,356.4,356.4-122.9,122.9c-97.6,97.6-234.5,144.7-371.6,127.7h0Z"></path></svg> 