<?xml version="1.0" encoding="UTF-8"?> <svg xmlns="http://www.w3.org/2000/svg" id="Layer_1" version="1.1" viewBox="0 0 1200 1200"><defs><style> .st0 { fill: #8eba3f; } </style></defs><path class="st0" d="M556.1,428.6h-12.6c-2.4,0-4.3-2-4.3-4.3v-69.2c0-1.2.3-2.4,1.2-3.2s2-1.4,3.1-1.4h13c2.4,0,4.3,2,4.3,4.3v69.2c0,1.3-.4,2.5-1.4,3.4s-2.2,1.3-3.4,1.2h0ZM661.3,417.2v-55.4c0-2.4-2-4.3-4.3-4.3h-13c-2.4,0-4.3,2-4.3,4.3v56.6c0,2.4,2,4.3,4.3,4.3h12.8c1.4,0,2.6-.4,3.5-1.4s1.3-2.4,1-3.7v-.4ZM619.5,500.1v-15.2c0-5.2-2-10.1-5.7-13.8-3.7-3.7-8.6-5.7-13.7-5.8-5.2,0-10.1,2-13.8,5.7-3.7,3.7-5.7,8.6-5.7,13.8v15.2c0,2.4,2,4.3,4.3,4.3h30.3c2.4,0,4.2-2,4.3-4.3h0ZM702.1,552.7c24.7-20.7,42.8-48.2,52-79.1,9.3-30.9,9.3-63.8,0-94.7-9.3-30.9-27.4-58.3-52-79.1l-2.4-2h-199.1l-2.4,2c-24.7,20.7-42.8,48.2-52,79.1-9.3,30.9-9.3,63.8,0,94.7,9.3,30.9,27.4,58.3,52,79.1l2.4,2h198.6l2.8-2h0ZM456.6,426.3c0-21.1,4.5-41.9,13.2-61,8.8-19.2,21.4-36.2,37.3-50.1h185.8c21.2,18.5,36.8,42.7,44.7,69.8,7.9,27,7.9,55.8,0,82.9-7.9,27-23.5,51.3-44.7,69.8h-185.8c-15.9-13.9-28.6-30.9-37.3-50.1-8.7-19.2-13.2-40-13.2-61.1h0ZM560.4,771.5v-69.2c0-2.4-2-4.3-4.3-4.3h-12.6c-2.4,0-4.3,2-4.3,4.3v69.2c0,2.4,2,4.3,4.3,4.3h13c2.2-.3,3.8-2.1,3.8-4.3h0ZM661.3,765v-56.6h0c0-2.4-2-4.3-4.3-4.3h-13c-2.4,0-4.3,2-4.3,4.3v56.6c0,2.4,2,4.3,4.3,4.3h12.8c1.2,0,2.3-.3,3.2-1.2.9-.8,1.4-2,1.4-3.1h0ZM619.5,847.3v-15.2c0-5.1-2-10-5.7-13.7s-8.5-5.7-13.7-5.7-10.1,2-13.8,5.7c-3.7,3.7-5.7,8.6-5.8,13.7v15.2c0,2.4,2,4.3,4.3,4.3h30.3c2.4,0,4.2-2,4.3-4.3h0ZM702.1,900.1c24.7-20.7,42.8-48.2,52.1-79.1,9.3-30.9,9.3-63.8,0-94.7-9.3-30.9-27.4-58.4-52.1-79.1l-2.8-2.1h-198.6l-2.4,2c-24.7,20.7-42.8,48.2-52.1,79.1-9.3,30.9-9.3,63.8,0,94.7,9.3,30.9,27.4,58.4,52.1,79.1l2.4,2h198.6l2.8-1.8h0ZM456.6,773.6c0-21.1,4.5-41.9,13.2-61,8.8-19.2,21.4-36.2,37.3-50.1h185.8c21.2,18.5,36.8,42.7,44.7,69.7,7.9,27,7.9,55.8,0,82.8-7.9,27-23.5,51.3-44.7,69.7h-185.8c-15.9-13.9-28.6-30.9-37.3-50.1-8.7-19.1-13.3-40-13.2-61h0ZM928.6,1058.1V141.9c0-13.8-5.5-27-15.3-36.7-9.8-9.8-23-15.2-36.8-15.2H323.5c-13.8,0-26.9,5.4-36.7,15.2-9.7,9.7-15.2,23-15.2,36.7v916.2c0,13.7,5.6,26.8,15.4,36.4,9.7,9.6,22.9,15,36.5,15h553c13.7,0,26.9-5.4,36.6-15,9.8-9.6,15.3-22.7,15.5-36.5h0ZM876.5,107.3c9.2,0,17.9,3.7,24.4,10.1,6.5,6.5,10.1,15.2,10.1,24.4v916.2c0,9.2-3.7,17.9-10.1,24.5-6.5,6.5-15.3,10.2-24.5,10.2H323.5c-9.1-.2-17.7-3.9-24.1-10.4-6.4-6.5-9.9-15.2-9.9-24.3V141.8c.2-9.1,3.9-17.7,10.4-24.1s15.1-9.9,24.2-9.9l552.5-.6h0Z"></path></svg> 