<?xml version="1.0" encoding="UTF-8"?> <svg xmlns="http://www.w3.org/2000/svg" id="Layer_1" version="1.1" viewBox="0 0 1200 1200"><defs><style> .st0 { fill: #8eba3f; } </style></defs><path class="st0" d="M158.2,364.5h883.7c6.4,0,11.6-5.2,11.6-11.6v-64.3c0-6.4-5.2-11.6-11.6-11.6H158.2c-6.4,0-11.6,5.2-11.6,11.6v64.3c0,6.4,5.2,11.6,11.6,11.6h0ZM169.8,300.1h860.4v41.1H169.8v-41.1ZM1166.3,131.2c-6.2-12.6-18.2-20.1-32.3-20.1H66.1c-14.1,0-26.1,7.5-32.3,20.1-6.2,12.6-4.7,26.8,3.9,37.8l50.5,65.2v152.7c0,17.3,12.3,31.8,28.6,35.2v563.9c-16.3,3.4-28.6,17.9-28.6,35.2v56.2c0,6.4,5.2,11.6,11.6,11.6h1000.5c6.4,0,11.6-5.2,11.6-11.6v-56.2c0-17.3-12.3-31.8-28.6-35.2V422.1c16.3-3.4,28.6-17.9,28.6-35.2v-152.8s50.5-65.2,50.5-65.2c8.6-11.1,10.1-25.3,3.9-37.8h0ZM894.8,985.1V422.8h165.2v562.3h-165.2ZM871.6,985.1h-100.3c31.6-37.7,58.5-99.4,44.4-197.4-.5-3.6-2.7-6.8-5.9-8.5-3.2-1.8-7-1.9-10.4-.5l-56.1,24.8c11.5-25.7,13-56.8,4.3-92-9.8-39.5-29-70.1-29.8-71.4-1.9-3-5-5-8.5-5.3s-7,.8-9.5,3.3l-41.3,41.3c-49.8-49.8-34.2-144.7-34-145.7.8-4.3-.9-8.6-4.4-11.2s-8.1-3.1-12-1.3c-48.9,22.6-78.1,71.6-84.7,141.8-2.2,24.5-1.5,47.3,0,64.8l-39.3-36.4c-2.3-2.1-5.3-3.2-8.4-3.1-3.1.1-6,1.5-8.1,3.8-61.3,67.2-91.3,135-86.7,196,2.7,36.2,17.3,69.2,42.4,96.9h-94.9V422.8h543v562.4ZM529,985.1c-1.8-19.1,4.3-33.8,18.6-44.5,38.4-29,38.2-72.7,33.8-98.4,45,14.6,73.4,35.2,84.6,61.4,9.8,22.8,6.4,50.3-9.7,81.6h-127.2ZM687.3,894.4c-15.6-36.6-55.7-63.7-119.2-80.3-4.2-1.1-8.7.2-11.6,3.4-2.9,3.2-3.8,7.8-2.3,11.9.2.6,21.8,60.6-20.7,92.7-20.2,15.2-29.6,36.9-27.8,63.1h-49c-31.5-26.8-49.7-60.8-52.5-98.7-3.9-52,21.3-110.5,72.9-169.9l54.4,50.3c3.7,3.4,9.2,4.1,13.6,1.6s6.7-7.5,5.7-12.5c-.3-1.5-28.7-145.4,48.2-202.6-2.2,37.5,1.3,110,52.6,151,4.6,3.7,11.3,3.3,15.5-.8l38.2-38.2c15.8,31.1,48.5,110.9-5,157.6-4.3,3.8-5.2,10.2-2.2,15s9.2,6.7,14.5,4.4l81.8-36.2c7.8,76.5-11.4,137.9-55.5,178.8h-57c14.7-33.3,16.6-64.4,5.4-90.7h0ZM305.2,985.1h-165.2V422.8h165.2v562.3ZM1088.6,1021.1v44.6H111.4s0-44.6,0-44.6c0-7,5.7-12.7,12.7-12.7h951.8c7,0,12.7,5.7,12.7,12.7h0ZM1088.6,386.9c0,7-5.7,12.7-12.7,12.7H124.1c-7,0-12.7-5.7-12.7-12.7v-145.1h977.2v145.1ZM1144,154.7l-49.5,63.8H105.5l-49.5-63.8c-3.1-4-3.6-8.8-1.4-13.4s6.3-7.1,11.4-7.1h1068c5.1,0,9.1,2.5,11.4,7.1,2.2,4.5,1.7,9.3-1.4,13.3h0ZM186.7,950.1h71.8c6.4,0,11.6-5.2,11.6-11.6v-468.9c0-6.4-5.2-11.6-11.6-11.6h-71.8c-6.4,0-11.6,5.2-11.6,11.6v468.9c0,6.4,5.2,11.6,11.6,11.6ZM198.4,481.2h48.5v445.6h-48.5v-445.6ZM1013.3,457.9h-71.8c-6.4,0-11.6,5.2-11.6,11.6v468.9c0,6.4,5.2,11.6,11.6,11.6h71.8c6.4,0,11.6-5.2,11.6-11.6v-468.9c0-6.4-5.2-11.6-11.6-11.6h0ZM1001.6,926.8h-48.5v-445.6h48.5v445.6Z"></path></svg> 