<?xml version="1.0" encoding="UTF-8"?> <svg xmlns="http://www.w3.org/2000/svg" id="Layer_1" version="1.1" viewBox="0 0 1200 1200"><defs><style> .st0 { fill: #8eba3f; } </style></defs><path class="st0" d="M752.8,171.7l-3.6-2.4c-23.8-15.5-59.5-39-111-46.2-37.7-5.3-110.5-2.4-113.6-2.3-3.8.1-7.7,1.7-10.6,4.2-.2.2-26.3,22.2-52.9,21.4-27-.7-48.2-19-48.5-19.1-3.1-2.8-7.2-4.3-11.5-4.3h-64.6c-9.6,0-17.4,7.8-17.4,17.4v124.1c0,9.6,7.8,17.4,17.4,17.4h65.4c3.8,0,7.6-1.3,10.6-3.6,8.2-6.4,24.8-17.2,47.5-16.6,22,.2,49.2,10.7,60.5,33.4,4.4,8.9,6.2,19.4,5.3,30.5v.5c0,.1,0,.4-.1.5l-24,689.6c-.6,16.9,5.5,33,17.3,45.1,11.8,12.1,27.6,18.8,44.5,18.8h75c16.9,0,32.8-6.7,44.5-18.8,11.8-12.2,17.9-28.2,17.3-45.1l-24-689.6h0v-.2c-1.2-25.4,3.2-54.5,9.2-60.1.5.1,1.1.1,1.7.2,28.1,4.6,60.4,24,101.5,61.1l62.9,58.2c3.2,3,7.6,4.6,11.8,4.6s4.7-.5,7-1.4c6.4-2.8,10.4-9,10.4-15.8v-31c0-19.1-5.2-37.6-15-53.4-29.5-48-67.6-87.2-112.9-116.9h0ZM665.8,1017.2c.2,7.4-2.4,14.4-7.6,19.8-5.2,5.4-12.1,8.3-19.6,8.3h-75c-7.4,0-14.4-3-19.6-8.3-5.2-5.4-7.9-12.4-7.6-19.8l23.4-673h82.6l23.3,673ZM812.3,301.7c-47.2-42.4-83.9-64-119.3-69.7-2.6-.5-5.3-.8-8.3-.8s-5.9.4-9.2,1.4c-27.4,8.5-33.4,48.5-34,76.9h-81.4c-1.1-10.7-4.1-20.9-8.6-30.1-19.1-38.3-61-52.2-91.1-52.6-28.4-.2-51,11.3-64.1,20.2h-42.5v-89.4h41.3c10.4,7.7,34.8,22.6,65,23.4,31.6.7,60-17.4,71.3-25.7,17.6-.6,73-1.9,101.9,2.2,43.7,6.1,74.4,26.2,96.7,40.8l3.7,2.4c41.2,26.8,75.6,62.5,102.6,106,4.8,7.8,7.9,16.6,9.2,25.8l-33.4-30.7Z"></path></svg> 