<?xml version="1.0" encoding="UTF-8"?> <svg xmlns="http://www.w3.org/2000/svg" id="Layer_1" version="1.1" viewBox="0 0 1200 1200"><defs><style> .st0 { fill: #8eba3f; } </style></defs><path class="st0" d="M135.9,146.9v906.1c0,6.1,4.9,11,11,11h906.1c6.1,0,11-4.9,11-11V146.9c0-6.1-4.9-11-11-11H146.9c-6.1,0-11,4.9-11,11ZM164.1,1035.9v-205.1l213.1-213.1c4.3-4.3,4.3-11.3,0-15.6l-4.3-4.3c-4.3-4.3-11.3-4.3-15.6,0l-193.2,193.2V164.1h871.9v130.1l-213.1,213.1c-4.3,4.3-4.3,11.3,0,15.6l4.3,4.3c4.3,4.3,11.3,4.3,15.6,0l193.2-193.2v702H164.1Z"></path><path class="st0" d="M227.2,452.2l-4.3-4.3c-4.3-4.3-4.3-11.3,0-15.6l134.4-134.4c4.3-4.3,11.3-4.3,15.6,0l4.3,4.3c4.3,4.3,4.3,11.3,0,15.6l-134.4,134.4c-4.3,4.3-11.3,4.3-15.6,0Z"></path><path class="st0" d="M452.2,827.2l-4.3-4.3c-4.3-4.3-4.3-11.3,0-15.6l134.4-134.4c4.3-4.3,11.3-4.3,15.6,0l4.3,4.3c4.3,4.3,4.3,11.3,0,15.6l-134.4,134.4c-4.3,4.3-11.3,4.3-15.6,0Z"></path><path class="st0" d="M752.2,977.2l-4.3-4.3c-4.3-4.3-4.3-11.3,0-15.6l209.4-209.4c4.3-4.3,11.3-4.3,15.6,0l4.3,4.3c4.3,4.3,4.3,11.3,0,15.6l-209.4,209.4c-4.3,4.3-11.3,4.3-15.6,0Z"></path></svg> 