<?xml version="1.0" encoding="UTF-8"?> <svg xmlns="http://www.w3.org/2000/svg" id="Layer_1" version="1.1" viewBox="0 0 1200 1200"><defs><style> .st0 { fill: #8eba3f; } </style></defs><path class="st0" d="M1068,120H132c-6.6,0-12,5.4-12,12v936c0,6.6,5.4,12,12,12h936c6.6,0,12-5.4,12-12V132c0-6.6-5.4-12-12-12ZM1056,561.9h-89.4V144h89.4v417.9ZM359.7,939.4h-92.6V144h92.6v795.4ZM267.1,963.4h92.6v92.6h-92.6v-92.6ZM383.7,144h92.6v912h-92.6V144ZM592.9,739.9h-92.6V144h92.6v595.9ZM500.3,763.9h92.6v292.1h-92.6v-292.1ZM616.9,144h92.6v912h-92.6V144ZM826,313.3h-92.6v-169.3s92.6,0,92.6,0v169.3ZM733.5,337.3h92.6v718.7s-92.6,0-92.6,0V337.3ZM850,144h92.6v912h-92.6V144ZM243.1,144v322.8h-95.4c-1.3,0-2.5.4-3.7.7V144h99.1ZM144,490c1.2.4,2.4.7,3.7.7h95.4v565.2h-99.1V490ZM966.6,1056v-470.1h89.4v470.1h-89.4Z"></path></svg> 