<?xml version="1.0" encoding="UTF-8"?> <svg xmlns="http://www.w3.org/2000/svg" id="Layer_1" version="1.1" viewBox="0 0 1200 1200"><defs><style> .st0 { fill: #8eba3f; } </style></defs><path class="st0" d="M600.7,193.1h-.7c-83.9,0-162.9,32.6-222.4,91.9-59.8,59.5-92.6,138.5-92.8,222.9-.2,91.4,39.1,178.4,108,238.4,30.5,26.5,47.8,64.7,47.8,104.8v.5c0,17.3,6.6,33,17.3,45-10.8,10.3-17.3,24.6-17.3,40.5s5.4,27.4,14.3,37.3c-8.9,9.8-14.3,23-14.3,37.3,0,30.9,25.1,56,56,56h18.8c8.7,38.9,43.4,68,84.6,68s75.9-29.1,84.6-68h18.8c30.9,0,56-25.1,56-56s-5.4-27.4-14.3-37.3c8.9-9.8,14.3-23,14.3-37.3s-6.8-30.2-17.3-40.5c10.8-12,17.3-27.7,17.3-45v-.7c0-40.1,17.3-78,47.8-104.5,68.9-60,108.3-146.7,108.3-237.9,0-173.4-141.3-315-314.8-315.2h0ZM703.4,918.3c10.1,0,18.5,8.2,18.5,18.5s-8.2,18.5-18.5,18.5h-206.7c-10.1,0-18.5-8.2-18.5-18.5s8.2-18.5,18.5-18.5h206.7ZM600,1097.6c-20.4,0-38-12.7-45.5-30.5h90.9c-7.5,17.8-25.1,30.5-45.5,30.5ZM703.4,1029.6h-206.7c-10.1,0-18.5-8.2-18.5-18.5s8.2-18.5,18.5-18.5h206.7c10.1,0,18.5,8.2,18.5,18.5s-8.4,18.5-18.5,18.5ZM782.3,717.9c-38.4,33.5-60.7,82-60.7,132.9v.5c0,16.4-13.4,29.5-29.5,29.5h-184.5c-16.4,0-29.5-13.4-29.5-29.5v-.5c0-50.9-22.3-99.4-60.7-132.9-60.7-53-95.4-129.6-95.4-210,.2-74.3,29.3-143.9,81.8-196.2s122.1-80.9,195.9-80.9h.7c152.8.2,277.3,124.9,277.3,277.7.2,80.2-34.7,156.6-95.4,209.3h0Z"></path><path class="st0" d="M1031.5,496.4h-57.9c-10.3,0-18.8,8.4-18.8,18.8s8.4,18.8,18.8,18.8h57.9c10.3,0,18.8-8.4,18.8-18.8s-8.4-18.8-18.8-18.8h0Z"></path><path class="st0" d="M245.2,515.2c0-10.3-8.4-18.8-18.8-18.8h-57.9c-10.3,0-18.8,8.4-18.8,18.8s8.4,18.8,18.8,18.8h57.9c10.3,0,18.8-8.4,18.8-18.8Z"></path><path class="st0" d="M877.5,765.9c-7.3-7.3-19.2-7.3-26.5,0s-7.3,19.2,0,26.5l41,41c3.8,3.8,8.4,5.4,13.4,5.4s9.6-1.9,13.4-5.4c7.3-7.3,7.3-19.2,0-26.5l-41.2-41Z"></path><path class="st0" d="M322.5,264.1c3.8,3.8,8.4,5.4,13.4,5.4s9.6-1.9,13.4-5.4c7.3-7.3,7.3-19.2,0-26.5l-41-40.8c-7.3-7.3-19.2-7.3-26.5,0s-7.3,19.2,0,26.5l40.8,40.8Z"></path><path class="st0" d="M427.3,183.3c3,6.8,9.8,11,17.1,11s5.2-.5,7.7-1.6c9.4-4.2,13.6-15.5,9.1-24.8l-24.1-52.5c-4.2-9.4-15.5-13.6-24.8-9.1-9.4,4.2-13.6,15.5-9.1,24.8l24.1,52.3Z"></path><path class="st0" d="M1005.5,663.8l-53.4-22.3c-9.6-4-20.6.5-24.6,10.1s.5,20.6,10.1,24.6l53.4,22.3c2.3.9,4.7,1.4,7.3,1.4,7.3,0,14.3-4.5,17.3-11.5,4-9.6-.5-20.6-10.1-24.6h0Z"></path><path class="st0" d="M322.5,765.9l-41,41c-7.3,7.3-7.3,19.2,0,26.5,3.8,3.8,8.4,5.4,13.4,5.4s9.6-1.9,13.4-5.4l41-41c7.3-7.3,7.3-19.2,0-26.5-7.5-7.3-19.2-7.3-26.7,0h0Z"></path><path class="st0" d="M248,641.5l-53.4,22.3c-9.6,4-14.1,15-10.1,24.6,3,7.3,10.1,11.5,17.3,11.5s4.9-.5,7.3-1.4l53.4-22.3c9.6-4,14.1-15,10.1-24.6s-15-14.1-24.6-10.1h0Z"></path><path class="st0" d="M262.5,354.1l-53.4-22.3c-9.6-4-20.6.5-24.6,10.1s.5,20.6,10.1,24.6l53.4,22.3c2.3.9,4.7,1.4,7.3,1.4,7.3,0,14.3-4.5,17.3-11.5,4-9.6-.7-20.6-10.1-24.6h0Z"></path><path class="st0" d="M891.8,196.9l-41,40.8c-7.3,7.3-7.3,19.2,0,26.5,3.8,3.8,8.4,5.4,13.4,5.4s9.6-1.9,13.4-5.4l41-41c7.3-7.3,7.3-19.2,0-26.5-7.5-7.3-19.5-7.3-26.7.2h0Z"></path><path class="st0" d="M747.9,192.7c2.6,1.2,5.2,1.6,7.7,1.6,7,0,13.8-4,17.1-11l24.1-52.5c4.2-9.4.2-20.6-9.1-24.8s-20.6-.2-24.8,9.1l-24.1,52.5c-4.5,9.6-.2,20.6,9.1,25.1h0Z"></path><path class="st0" d="M944.8,390.2c2.3,0,4.9-.5,7.3-1.4l53.4-22.3c9.6-4,14.1-15,10.1-24.6s-15-14.1-24.6-10.1l-53.4,22.3c-9.6,4-14.1,15-10.1,24.6,3,7,10.1,11.5,17.3,11.5h0Z"></path><path class="st0" d="M600,160.3c10.3,0,18.8-8.4,18.8-18.8v-57.9c0-10.3-8.4-18.8-18.8-18.8s-18.8,8.4-18.8,18.8v57.9c0,10.3,8.4,18.8,18.8,18.8Z"></path><path class="st0" d="M759.4,370.5c-8.2-6.3-19.9-4.7-26.2,3.8l-182.3,241.9-85.8-85.8c-7.3-7.3-19.2-7.3-26.5,0s-7.3,19.2,0,26.5l101,101c3.5,3.5,8.2,5.4,13.4,5.4h1.4c5.4-.5,10.3-3,13.6-7.5l195.2-259.2c6.1-8,4.5-19.7-3.8-26h0Z"></path></svg> 