<?xml version="1.0" encoding="UTF-8"?> <svg xmlns="http://www.w3.org/2000/svg" id="Layer_1" version="1.1" viewBox="0 0 1200 1200"><defs><style> .st0 { fill: #8eba3f; } </style></defs><path class="st0" d="M120.8,140.1v919.7c0,10.5,8.4,18.9,18.9,18.9h920.5c10.5,0,18.9-8.4,18.9-18.9V140.1c0-10.5-8.4-18.9-18.9-18.9H139.7c-10.5,0-18.9,8.4-18.9,18.9ZM1037.9,162.5v180H162.1v-180h875.8ZM162.1,383.8h427.6v653.7H162.1V383.8ZM631,1039.6V383.8h406.9v653.7h-406.9v2.1Z"></path><path class="st0" d="M522.5,271.1h175.6c12.4,0,20.7-8.3,20.7-20.7s-8.3-20.7-20.7-20.7h-175.6c-12.4,0-20.7,8.3-20.7,20.7s10.3,20.7,20.7,20.7Z"></path><path class="st0" d="M698.1,517c-12.4,0-20.7,8.3-20.7,20.7v169.4c0,12.4,8.3,20.7,20.7,20.7s20.7-8.3,20.7-20.7v-169.4c0-12.4-8.3-20.7-20.7-20.7Z"></path><path class="st0" d="M522.5,517c-12.4,0-20.7,8.3-20.7,20.7v169.4c0,12.4,8.3,20.7,20.7,20.7s20.7-8.3,20.7-20.7v-169.4c0-12.4-8.3-20.7-20.7-20.7Z"></path></svg> 