<?xml version="1.0" encoding="UTF-8"?> <svg xmlns="http://www.w3.org/2000/svg" id="Layer_1" version="1.1" viewBox="0 0 1200 1200"><defs><style> .st0 { fill: #8eba3f; } </style></defs><path class="st0" d="M956.3,75H243.8c-41.4,0-75,33.6-75,75v900c0,19.9,7.9,39,22,53s33.1,22,53,22h675c38.6,0,112.5-29.2,112.5-75V150c0-19.9-7.9-39-22-53s-33.1-22-53-22ZM243.8,112.5h712.5c9.9,0,19.5,3.9,26.5,11s11,16.6,11,26.5v150H206.3v-150c0-20.7,16.8-37.5,37.5-37.5ZM918.8,1087.5H243.8c-20.7,0-37.5-16.8-37.5-37.5V337.5h787.5v712.5c0,14.1-46.9,37.5-75,37.5ZM300,281.2c22.7,0,43.3-13.7,52-34.7,8.7-21,3.9-45.2-12.2-61.3-16.1-16.1-40.3-20.9-61.3-12.2-21,8.7-34.7,29.2-34.7,52s25.2,56.2,56.2,56.2ZM300,206.2c7.6,0,14.4,4.5,17.3,11.6,2.9,7,1.3,15-4.1,20.4-5.4,5.3-13.5,6.9-20.4,4.1-7-2.9-11.6-9.8-11.6-17.3s8.4-18.8,18.8-18.8h0ZM487.5,281.2c22.7,0,43.3-13.7,52-34.7,8.7-21,3.9-45.2-12.2-61.3-16.1-16.1-40.3-20.9-61.3-12.2-21,8.7-34.7,29.2-34.7,52s25.2,56.2,56.2,56.2ZM487.5,206.2c7.6,0,14.4,4.5,17.3,11.6,2.9,7,1.3,15-4.1,20.4-5.4,5.3-13.5,6.9-20.4,4.1-7-2.9-11.6-9.8-11.6-17.3s8.4-18.8,18.8-18.8h0ZM618.8,281.2c22.7,0,43.3-13.7,52-34.7,8.7-21,3.9-45.2-12.2-61.3-16.1-16.1-40.3-20.9-61.3-12.2-21,8.7-34.7,29.2-34.7,52s25.2,56.2,56.2,56.2ZM618.8,206.2c7.6,0,14.4,4.5,17.3,11.6,2.9,7,1.3,15-4.1,20.4-5.4,5.3-13.5,6.9-20.4,4.1-7-2.9-11.6-9.8-11.6-17.3s8.4-18.8,18.8-18.8h0ZM731.3,281.2h225c5,0,9.8-2,13.3-5.5,3.5-3.5,5.5-8.3,5.5-13.3v-75c0-5-2-9.8-5.5-13.3-3.5-3.5-8.3-5.5-13.3-5.5h-225c-10.4,0-18.8,8.4-18.8,18.8v75c0,5,2,9.8,5.5,13.3,3.5,3.5,8.3,5.5,13.3,5.5h0ZM750,206.2h187.5v37.5h-187.5v-37.5ZM600,412.5h-6.2c-107.2,1.1-205.6,59.3-258.3,152.7-52.6,93.4-51.4,207.7,3.1,300,54.6,92.3,154.2,148.5,261.4,147.3h6.2c107.2-1.1,205.6-59.3,258.3-152.7,52.6-93.4,51.4-207.7-3.1-300-54.6-92.3-154.2-148.5-261.4-147.3h0ZM605.5,975c-93.8,1.9-181.5-46.3-230.1-126.6-48.6-80.2-50.6-180.3-5.4-262.5,45.2-82.2,130.8-134,224.6-135.9h5.4c93.8-1,180.9,48.1,228.7,128.9,47.7,80.7,48.8,180.8,2.7,262.5-46.1,81.7-132.2,132.6-226,133.6h0ZM600,487.5h-4.7c-58.9,1.2-114.9,25.5-156.1,67.5-41.2,42-64.2,98.6-64.2,157.5v4.7c1.2,58.9,25.5,114.9,67.5,156.1,42,41.2,98.6,64.2,157.4,64.2h4.7c58.7-1.2,114.6-25.4,155.8-67.2,41.2-41.9,64.3-98.2,64.5-156.8v-4.7c-1-59-25.1-115.3-67.2-156.7-42.1-41.3-98.8-64.5-157.8-64.5h0ZM596.1,525h3.9c59,0,114.6,27.8,150,75-14.8-6-30.6-9.1-46.5-9.2-67.4,0-122.1,54.3-122.3,121.7.3,46.6-37.2,84.6-83.8,84.9s-84.6-37.2-84.9-83.8c-.3-49.3,18.8-96.7,53.1-132,34.4-35.3,81.2-55.6,130.5-56.7h0ZM604,900c-60.5,1.5-117.8-26.5-153.9-75,14.8,6,30.6,9.1,46.5,9.2,67.4,0,122.1-54.3,122.3-121.7-.3-46.6,37.2-84.6,83.8-84.9s84.6,37.2,84.9,83.8c.3,49.3-18.8,96.7-53.1,132-34.4,35.3-81.2,55.6-130.5,56.7h0ZM318.8,1031.3c0,5-2,9.8-5.5,13.3-3.5,3.5-8.3,5.5-13.3,5.5h-37.5c-10.4,0-18.8-8.4-18.8-18.8s8.4-18.8,18.8-18.8h37.5c5,0,9.8,2,13.3,5.5,3.5,3.5,5.5,8.3,5.5,13.3h0ZM318.8,975c0,5-2,9.8-5.5,13.3-3.5,3.5-8.3,5.5-13.3,5.5h-37.5c-10.4,0-18.8-8.4-18.8-18.8s8.4-18.8,18.8-18.8h37.5c5,0,9.8,2,13.3,5.5,3.5,3.5,5.5,8.3,5.5,13.3h0ZM956.3,450c0,5-2,9.8-5.5,13.3-3.5,3.5-8.3,5.5-13.3,5.5h-37.5c-10.4,0-18.8-8.4-18.8-18.8s8.4-18.8,18.8-18.8h37.5c5,0,9.8,2,13.3,5.5,3.5,3.5,5.5,8.3,5.5,13.3h0ZM956.3,393.8c0,5-2,9.8-5.5,13.3-3.5,3.5-8.3,5.5-13.3,5.5h-37.5c-10.4,0-18.8-8.4-18.8-18.8s8.4-18.8,18.8-18.8h37.5c5,0,9.8,2,13.3,5.5,3.5,3.5,5.5,8.3,5.5,13.3h0Z"></path></svg> 