<?xml version="1.0" encoding="UTF-8"?>
<svg width="1200pt" height="1200pt" version="1.1" viewBox="0 0 1200 1200" xmlns="http://www.w3.org/2000/svg">
 <path d="m876 12c-11.391 0-21.188 7.9688-23.484 19.125 0 0-7.0312 33.75-19.828 73.266s-33.094 84.609-50.391 101.91-62.438 37.594-101.91 50.391c-39.516 12.797-73.266 19.828-73.266 19.828h-0.046875c-11.109 2.2969-19.078 12.141-19.078 23.484s7.9688 21.188 19.078 23.484c0 0 33.75 7.0312 73.266 19.828s84.609 33.094 101.91 50.391 37.594 62.438 50.391 101.91c12.797 39.516 19.828 73.219 19.828 73.219l0.046875 0.046875c2.2969 11.156 12.141 19.125 23.484 19.125 11.391 0 21.188-7.9688 23.484-19.125 0 0 7.0312-33.75 19.828-73.219 12.797-39.516 33.094-84.609 50.438-101.91 17.297-17.297 62.438-37.594 101.91-50.391 39.516-12.797 73.219-19.828 73.219-19.828v-0.046875c11.156-2.2969 19.125-12.141 19.125-23.484s-7.9688-21.188-19.125-23.484c0 0-33.75-7.0312-73.219-19.828-39.516-12.797-84.609-33.094-101.91-50.391s-37.641-62.438-50.438-101.91c-12.797-39.516-19.828-73.266-19.828-73.266-2.2969-11.156-12.094-19.125-23.484-19.125zm0 113.34c13.406 40.734 30.797 85.969 59.766 114.89 28.969 28.969 74.203 46.359 114.94 59.766-40.734 13.406-85.969 30.797-114.94 59.766s-46.359 74.203-59.766 114.89c-13.406-40.734-30.797-85.969-59.766-114.89-28.969-28.969-74.203-46.359-114.94-59.766 40.734-13.406 85.969-30.844 114.94-59.766 28.969-28.969 46.359-74.203 59.766-114.89zm-552 6.6562c-11.391 0-21.188 7.9688-23.484 19.125 0 0-7.0312 33.75-19.828 73.266s-33.094 84.609-50.391 101.91-62.438 37.594-101.91 50.391c-39.516 12.797-73.266 19.828-73.266 19.828h-0.046875c-11.109 2.2969-19.078 12.141-19.078 23.484s7.9688 21.188 19.078 23.484c0 0 33.75 7.0312 73.266 19.828s84.609 33.094 101.91 50.391 37.594 62.438 50.391 101.95 19.828 73.219 19.828 73.219h0.046875c2.2969 11.156 12.141 19.125 23.484 19.125 11.391 0 21.188-7.9688 23.484-19.125 0 0 7.0312-33.75 19.828-73.219 12.797-39.516 33.094-84.609 50.438-101.95 17.297-17.297 62.438-37.594 101.95-50.391s73.219-19.828 73.219-19.828h-0.046875c11.156-2.2969 19.125-12.141 19.125-23.484s-7.9688-21.188-19.125-23.484c0 0-33.75-7.0312-73.219-19.828-39.516-12.797-84.609-33.094-101.95-50.391-17.297-17.297-37.641-62.438-50.438-101.91-12.797-39.516-19.828-73.266-19.828-73.266h0.046875c-2.2969-11.156-12.094-19.125-23.484-19.125zm0 113.34c13.406 40.734 30.797 85.969 59.766 114.89 28.969 28.969 74.203 46.359 114.94 59.766-40.734 13.406-85.969 30.797-114.94 59.766s-46.359 74.203-59.766 114.94c-13.406-40.734-30.797-85.969-59.766-114.94s-74.203-46.359-114.94-59.766c40.734-13.406 85.969-30.844 114.94-59.766 28.969-28.969 46.359-74.203 59.766-114.89zm300 366.66c-11.391 0-21.188 7.9688-23.484 19.125 0 0-7.0312 33.75-19.828 73.219-12.797 39.516-33.094 84.609-50.391 101.91s-62.438 37.594-101.91 50.391c-39.516 12.797-73.266 19.828-73.266 19.828l-0.046875 0.046875c-11.109 2.2969-19.078 12.141-19.078 23.484s7.9688 21.188 19.078 23.484c0 0 33.75 7.0312 73.266 19.828s84.609 33.094 101.91 50.391 37.594 62.438 50.391 101.91c12.797 39.516 19.828 73.219 19.828 73.219l0.046875 0.046875c2.2969 11.156 12.141 19.125 23.484 19.125 11.391 0 21.188-7.9688 23.484-19.125 0 0 7.0312-33.75 19.828-73.219 12.797-39.516 33.094-84.609 50.438-101.91 17.297-17.297 62.438-37.594 101.95-50.391s73.219-19.828 73.219-19.828l-0.046875-0.046875c11.156-2.2969 19.125-12.141 19.125-23.484s-7.9688-21.188-19.125-23.484c0 0-33.75-7.0312-73.219-19.828-39.516-12.797-84.609-33.094-101.95-50.391-17.297-17.297-37.641-62.438-50.438-101.91-12.797-39.516-19.828-73.219-19.828-73.219l0.046875-0.046875c-2.2969-11.156-12.094-19.125-23.484-19.125zm0 113.34c13.406 40.734 30.797 85.969 59.766 114.89 28.969 28.969 74.203 46.359 114.94 59.812-40.734 13.406-85.969 30.797-114.94 59.766s-46.359 74.203-59.766 114.94c-13.406-40.734-30.797-85.969-59.766-114.94s-74.203-46.359-114.94-59.766c40.734-13.406 85.969-30.844 114.94-59.812s46.359-74.203 59.766-114.89z"/>
</svg>
