<?xml version="1.0" encoding="UTF-8"?>
<svg width="1200pt" height="1200pt" version="1.1" viewBox="0 0 1200 1200" xmlns="http://www.w3.org/2000/svg">
 <path d="m1198.5 593.9c-3.375-6.75-11.531-9.4688-18.281-6.0938l-42.516 21.281-178.22-343.69 219-103.03c6.7969-3.1875 9.75-11.344 6.5156-18.141-3.1875-6.7969-11.344-9.75-18.141-6.5156l-231.79 109.08c-3.375 1.5938-5.9062 4.4531-7.125 7.9688-1.1719 3.5156-0.89062 7.3594 0.79688 10.641l2.2031 4.2188-20.484 6.1406c-51.234 15.422-107.58 16.734-158.95 3.7969-18.656-4.6875-38.484-4.9219-57.422-0.60938l-20.672 4.7812c-17.344-24.094-42.656-40.547-71.953-46.406-19.312-3.8438-39.469-2.7656-58.266 3.1875l-229.45 72.469-32.906-10.969 4.4062-10.266c1.4531-3.3281 1.4531-7.0781 0.09375-10.453s-4.0312-6.0469-7.3594-7.4531l-259.08-109.12c-6.9375-2.9062-14.953 0.32812-17.859 7.2656s0.32812 14.906 7.2656 17.859l246.47 103.78-152.86 356.68-82.922-35.531c-6.9375-3-14.953 0.23438-17.906 7.1719-2.9531 6.8906 0.23438 14.906 7.1719 17.906l95.438 40.922c1.7344 0.75 3.5625 1.125 5.3438 1.125 5.2969 0 10.312-3.0938 12.516-8.25l5.7188-13.406 76.875 49.875c-7.6875 11.578-10.781 25.312-8.4375 39.141 2.5781 14.906 10.922 27.797 23.484 36.188l10.781 7.1719c9.0938 6.0469 19.5 9.1875 30.141 9.1875 3.8438 0 7.7344-0.42188 11.625-1.2656 1.875-0.42188 3.6094-1.1719 5.4375-1.7344 0.14062 1.6875 0.046875 3.3281 0.32812 5.0156 2.5781 14.906 10.922 27.797 23.484 36.188l10.781 7.1719c9.0938 6.0469 19.5 9.1875 30.141 9.1875 3.8438 0 7.7344-0.42188 11.625-1.2656 1.875-0.42188 3.6094-1.1719 5.4375-1.7344 0.14062 1.6875 0.046875 3.3281 0.32812 5.0156 2.5781 14.906 10.922 27.797 23.484 36.188l10.781 7.1719c9.0938 6.0469 19.5 9.1875 30.141 9.1875 3.8438 0 7.7344-0.42188 11.625-1.2656 2.5312-0.5625 4.875-1.4531 7.2656-2.3438 0.09375 1.8281-0.046875 3.6562 0.1875 5.4375 2.2031 15.281 10.875 28.969 23.719 37.547l9.8906 6.6094c9.0469 6.0469 19.5 9.1875 30.141 9.1875 3.6094 0 7.2188-0.32812 10.828-1.0781 14.297-2.8594 26.625-11.109 34.688-23.25l2.7656-4.125 38.531 24.984c9.375 6.0938 20.062 9.1875 30.797 9.1875 12.844 0 25.781-4.3594 36.75-13.125 13.453-10.781 21.234-26.719 21.422-43.875l5.4844 3.9844c20.719 15.188 49.172 14.484 69.234-1.5938 13.359-10.688 21.094-26.578 21.328-43.688 24.609 16.641 58.219 13.594 79.453-7.6406 11.906-11.906 18.469-27.656 18.469-44.391 0-3.0938-0.23438-6.1406-0.65625-9.1406 22.125 7.3594 47.344 2.0625 64.594-15.188 11.906-11.906 18.469-27.703 18.469-44.531 0-18.234-7.875-35.578-21.609-47.672l-187.78-163.26c46.594 15.984 96.516 22.406 146.34 17.906l5.5781-0.5625c7.5-0.75 12.984-7.4062 12.234-14.906s-7.2188-12.891-14.906-12.234l-5.4844 0.51562c-88.125 8.0625-176.76-20.859-243.28-79.031-5.625-4.9219-14.109-4.4062-19.125 1.125l-71.156 79.078c-26.016 28.875-67.781 35.578-101.44 16.406-6.1406-3.5625-9.9375-10.031-9.9375-16.969 0-3.2812 0.89062-6.5625 2.625-9.7031l82.922-147.42c13.125-23.391 35.578-40.219 61.688-46.172l70.922-16.406c3.1875 0.42188 6.5156-0.09375 9.375-2.0156 0.09375-0.046875 0.09375-0.14062 0.1875-0.1875l24.281-5.625c14.719-3.3281 30.141-3.1875 44.672 0.46875 56.156 14.109 117.56 12.75 173.48-4.125l25.406-7.6406 155.11 299.16-125.11 91.031c-6.0938 4.4531-7.4531 12.938-3 19.031 2.6719 3.6562 6.8438 5.625 11.062 5.625 2.7656 0 5.5781-0.84375 8.0156-2.625l121.78-88.594 8.1094 15.656c2.4375 4.6875 7.1719 7.3594 12.141 7.3594 2.0625 0 4.125-0.46875 6.0938-1.4531l54.562-27.281c6.75-3.375 9.4688-11.578 6.0938-18.281zm-932.44 179.9c-7.2656 1.5469-14.672 0.14062-20.859-3.9844l-10.781-7.1719c-6.2812-4.1719-10.453-10.594-11.766-18.094-1.2656-7.4531 0.51562-14.906 5.0625-20.953l27.75-36.984c5.2031-6.9375 12.797-11.344 21.422-12.469 8.625-1.0781 17.109 1.3125 23.859 6.7031 12.609 10.078 15.656 27.984 7.0781 41.672l-24.422 39.094c-3.9375 6.2812-10.125 10.641-17.391 12.188zm81.797 54.516c-7.2656 1.5469-14.672 0.14063-20.859-3.9844l-10.781-7.1719c-6.2812-4.1719-10.453-10.594-11.766-18.094-1.2656-7.4531 0.51562-14.906 5.0625-20.953l27.75-36.984c5.2031-6.9375 12.797-11.344 21.422-12.469 8.625-1.0781 17.109 1.3125 23.859 6.7031 12.609 10.078 15.656 27.984 7.0781 41.672l-24.422 39.094c-3.9375 6.2812-10.125 10.641-17.391 12.188zm81.844 54.562c-7.2656 1.5469-14.672 0.14063-20.859-3.9844l-10.781-7.1719c-6.2812-4.1719-10.453-10.594-11.766-18.094-1.2656-7.4531 0.51562-14.906 5.0625-20.953l27.75-36.984c5.2031-6.9375 12.797-11.344 21.422-12.469 8.6719-1.125 17.109 1.3125 23.859 6.7031 12.609 10.078 15.656 27.984 7.0781 41.672l-24.422 39.094c-3.9375 6.2812-10.125 10.641-17.391 12.188zm82.453 55.312c-7.1719 1.4062-14.438 0-20.484-4.0312l-9.8906-6.6094c-6.5156-4.3594-10.734-11.016-11.859-18.797-1.125-7.7344 1.0312-15.328 6.0469-21.375l10.172-12.188c11.203-13.453 31.453-15.516 45.141-4.5469 13.219 10.594 16.125 29.156 6.7031 43.266l-8.4375 12.656c-4.0312 6.0469-10.219 10.172-17.344 11.625zm77.109-635.02c-33.562 7.6406-62.484 29.297-79.359 59.391l-82.969 147.52c-3.9844 7.1719-6.0469 15.094-6.0469 22.969 0 16.641 9.0469 32.203 23.672 40.641 17.109 9.75 35.766 14.484 54.281 14.484 30 0 59.484-12.516 81-36.328l62.297-69.188c0.79688 1.8281 1.875 3.5156 3.4688 4.9219l273.66 237.94c7.7812 6.8438 12.281 16.734 12.281 27.094 0 9.5625-3.7031 18.516-10.453 25.266-12.703 12.656-32.906 14.016-47.109 3.0469l-142.92-109.92c-5.9062-4.5469-14.344-3.5156-18.984 2.2969s-3.7969 14.25 1.9219 18.984l122.29 101.81c8.1562 6.8438 12.844 16.828 12.844 27.328 0 9.4688-3.7031 18.375-10.453 25.125-12.422 12.422-32.391 13.828-46.406 3.2344l-129.56-97.078c-5.9531-4.4531-14.391-3.3281-18.938 2.5781s-3.5625 14.344 2.25 18.984l94.078 75.234c7.1719 5.7188 11.109 13.969 11.109 23.203 0 9.2344-3.9375 17.438-11.109 23.203-10.453 8.3906-25.266 8.7188-36.094 0.84375l-123.28-89.578c-6.0469-4.4062-14.438-3.1406-18.938 2.8594-4.4531 5.9531-3.3281 14.391 2.5312 18.984l79.312 61.594c7.2656 5.7188 11.438 14.203 11.484 23.391 0.046875 9.1406-4.0312 17.672-12 24.047-10.078 8.0156-24.047 8.7188-34.828 1.6875l-40.5-26.297c7.125-22.875 0.14062-48.328-19.547-64.078-14.344-11.484-32.625-14.953-49.547-11.391 10.312-24.047 3.7031-52.5-17.297-69.281-12.609-10.078-28.312-14.531-44.344-12.469-5.3906 0.70313-10.453 2.2969-15.328 4.3594 0.09375-17.531-7.5938-34.781-22.172-46.406-12.562-10.078-28.312-14.531-44.344-12.469-5.3906 0.70312-10.453 2.2969-15.328 4.3594 0.09375-17.531-7.5938-34.781-22.172-46.406-12.609-10.078-28.359-14.578-44.344-12.469-15.984 2.0156-30.141 10.266-39.797 23.156l-13.312 17.766-82.125-53.25 131.81-307.6 39.234 13.078c1.4062 0.46875 2.8594 0.70312 4.3125 0.70312 1.4062 0 2.7656-0.23438 4.125-0.65625l233.72-73.781c14.438-4.5469 29.906-5.3906 44.719-2.4375 18.562 3.7031 35.016 12.984 47.719 26.531l-54.562 12.656zm-2.9531-153.19v-68.203c0-7.5469 6.0938-13.641 13.641-13.641s13.641 6.0938 13.641 13.641v68.203c0 7.5469-6.0938 13.641-13.641 13.641s-13.641-6.0938-13.641-13.641zm-159.66-3.9844c-5.3438-5.3438-5.3438-13.969 0-19.266 5.3438-5.3438 13.969-5.3438 19.266 0l54.562 54.562c5.3438 5.3438 5.3438 13.969 0 19.266-2.6719 2.6719-6.1406 3.9844-9.6562 3.9844-3.4688 0-6.9844-1.3125-9.6562-3.9844l-54.562-54.562zm272.76 54.516c-5.3438-5.3438-5.3438-13.969 0-19.266l54.562-54.562c5.3438-5.3438 13.969-5.3438 19.266 0 5.3438 5.3438 5.3438 13.969 0 19.266l-54.562 54.562c-2.6719 2.6719-6.1406 3.9844-9.6562 3.9844-3.4688 0-6.9844-1.3125-9.6562-3.9844zm-85.828 849.47v68.203c0 7.5469-6.0938 13.641-13.641 13.641-7.5469 0-13.641-6.0938-13.641-13.641v-68.203c0-7.5469 6.0938-13.641 13.641-13.641 7.5469 0 13.641 6.0938 13.641 13.641zm-113.11-50.531c5.3438 5.3438 5.3438 13.969 0 19.266l-54.562 54.562c-2.6719 2.6719-6.1406 3.9844-9.6562 3.9844-3.4688 0-6.9844-1.3125-9.6562-3.9844-5.3438-5.3438-5.3438-13.969 0-19.266l54.562-54.562c5.3438-5.3438 13.969-5.3438 19.266 0zm272.76 54.516c5.3438 5.3438 5.3438 13.969 0 19.266-2.6719 2.6719-6.1406 3.9844-9.6562 3.9844-3.4688 0-6.9844-1.3125-9.6562-3.9844l-54.562-54.562c-5.3438-5.3438-5.3438-13.969 0-19.266 5.3438-5.3438 13.969-5.3438 19.266 0l54.562 54.562z"/>
</svg>
