<?xml version="1.0" encoding="UTF-8"?>
<svg width="1200pt" height="1200pt" version="1.1" viewBox="0 0 1200 1200" xmlns="http://www.w3.org/2000/svg">
 <path d="m453.68 1026c32.09 31.891 84.277 31.945 116.27-0.046875l380.99-381c21.426-20.035 25.871-50.559 24.059-78.508-0.52344-24.727-37.035-24.605-37.496 0 0.27734 17.395 1.4219 39.344-13.074 51.992 0.003906 0-380.98 381-380.98 381-17.395 17.375-45.793 17.359-63.301 0l-354.52-354.51c-17.414-17.543-17.449-45.961-0.054687-63.344l380.99-380.99c8.3125-8.3125 19.832-13.082 31.566-13.082h354.57c24.699 0 44.805 20.105 44.805 44.816v222.79c-36.543 1.875-77.336-1.2695-110.06-8.6523 35.344-70.527-20.938-161.9-101.7-159.66-98.562-1.582-150.39 123.49-79.535 192.05 41.703 43.477 116.67 43.66 158.62 0.43359 44.012 12.344 103.36 16.652 153.03 12.098 197.02-13.148 241-152.4 17.156-182.21v-76.848c0-45.391-36.914-82.316-82.305-82.316h-354.57c-21.605 0-42.773 8.7695-58.082 24.059l-380.99 381c-31.953 31.941-31.988 84.109 0 116.33l354.62 354.6zm337.22-590.22c-31.684-12.035-46.344-26.789-46.344-36.395 0-10.355-8.3867-18.75-18.75-18.75-10.363 0-18.75 8.3945-18.75 18.75 0 25.766 19.617 48.195 55.422 64.957-11.133 6.3047-23.605 9.9609-36.742 9.9609-65.289 1.6055-100.35-83.012-53.023-128.04 61.957-60.664 159.79 14.203 118.19 89.512zm184.09-88.742c73.477 9.8281 112.5 35.668 112.5 52.348 0 16.676-39.016 42.516-112.5 52.359z"/>
 <path d="m511.01 594.13c6.4062 6.4258 42.531 42.5 49.73 49.715 17.344 17.273 43.816-9.1172 26.512-26.516l-26.52-26.504 8.7969-8.7891c7.3242-7.3242 7.3242-19.191 0-26.523-7.3242-7.3242-19.191-7.3164-26.512-0.007813l-9.1641 9.1562c-37.199-32.961-102.21-4.6445-100.35 46.043 0 16.277 6.3359 31.582 17.852 43.082 7.6289 8.9531 28.117 22.883 26.75 36.465 0.74609 20.258-26.133 30.988-40.008 16.57l-9.9375-9.9297c-0.023437-0.003906-39.77-39.77-39.797-39.781-17.348-17.27-43.816 9.1133-26.512 26.512l26.527 26.512-8.8047 8.8008c-7.3242 7.3164-7.3242 19.191 0 26.512 7.3242 7.3242 19.191 7.3242 26.512 0l9.1328-9.125c59.566 49.645 136.2-33.52 82.531-89.156-7.6211-8.9375-28.117-22.895-26.75-36.465-0.75-20.258 26.137-30.992 40.008-16.57z"/>
</svg>
