<?xml version="1.0" encoding="UTF-8"?>
<svg width="1200pt" height="1200pt" version="1.1" viewBox="0 0 1200 1200" xmlns="http://www.w3.org/2000/svg">
 <path d="m512.62 1190.6c-2.6172 0-5.2344-0.36719-7.7812-1.0977l-41.621-11.992c-259.9-74.27-441.46-315.16-441.46-585.79v-421.88c0-12.562 8.3125-23.582 20.395-27.047l462.75-132.37c5.0547-1.4297 10.398-1.4297 15.453 0l463.13 132.37c12.066 3.4609 20.395 14.484 20.395 27.047v235.88c0 15.527-12.598 28.125-28.125 28.125s-28.125-12.598-28.125-28.125v-214.67l-435-124.31-434.62 124.31v400.67c0 245.64 164.77 464.3 400.73 531.72l39.02 11.242c10.164 1.6328 19.297 8.3867 22.688 18.527 4.9102 14.742-1.9414 30.285-16.66 35.195l-2.2539 0.75c-2.8906 0.97266-5.8945 1.4492-8.8984 1.4492z"/>
 <path d="m763.73 946.88c-7.6523 0-14.957-3.1133-20.27-8.625l-82.176-85.438c-10.766-11.203-10.418-29.004 0.76953-39.77 11.172-10.805 28.969-10.438 39.77 0.76953l61.91 64.359 160.05-166.43c10.766-11.172 28.602-11.535 39.77-0.76953 11.188 10.766 11.535 28.562 0.76953 39.77l-180.32 187.5c-5.293 5.5117-12.613 8.625-20.27 8.625z"/>
 <path d="m812.8 1190.6c-201.6 0-365.62-164.02-365.62-365.62s164.02-365.62 365.62-365.62c201.6 0 365.62 164.02 365.62 365.62s-164.02 365.62-365.62 365.62zm0-675c-170.58 0-309.38 138.8-309.38 309.38s138.8 309.38 309.38 309.38c170.58 0 309.38-138.8 309.38-309.38s-138.8-309.38-309.38-309.38z"/>
</svg>
