<?xml version="1.0" encoding="UTF-8"?> <svg xmlns="http://www.w3.org/2000/svg" id="Layer_1" viewBox="0 0 639.8851 308.434"><line x1="541.9217" y1="46.8351" x2="639.7663" y2="46.8351" fill="#6d6e71"></line><path d="M419.7235,0v136.4915s4.7964,75.7842-62.1251,91.7577l-34.6532-33.4603V0s96.7783,0,96.7783,0Z" fill="#8eba3f"></path><path d="M220.0428,0v136.4915s-4.7964,75.7842,62.1251,91.7578l34.6532-33.4603V0S220.0428,0,220.0428,0Z" fill="#8eba3f"></path><polyline points="542.988 0 542.988 232.0722 639.7663 232.0722 639.7663 0" fill="#7a6b5c"></polyline><rect x="440.0855" y="0" width="96.7784" height="232.0722" fill="#7a6b5c"></rect><path d="M103.0532,0v136.4915s-1.0897,95.5807,96.7784,95.5807V0h-96.7784Z" fill="#8eba3f"></path><path d="M96.7784,232.0722V81.9172S97.92,0,0,0v232.0722s96.7784,0,96.7784,0Z" fill="#8eba3f"></path><path d="M25.8568,299.9922l-1.463.8423v-35.2053h4.863v42.0132h-4.863l-20.9116-34.1676,1.506-.8434v35.011H.0831v-42.0132h4.9051l20.8686,34.363Z" fill="#191919"></path><path d="M51.0278,308.4207c-21.6393.8748-21.668-44.4897.0002-43.5685,21.6696-.9508,21.641,44.4747-.0002,43.5685ZM51.0278,301.9373c15.002.7706,14.9666-31.3099,0-30.6019-15.0618-.6786-15.0976,31.3445,0,30.6019Z" fill="#191919"></path><path d="M72.7997,307.6424v-42.0132c4.0118.4329,18.4652-1.1376,21.858,1.3294,7.6242,4.5844,6.1848,22.2092-3.6142,22.2703l-.4301-.4537c10.2974-1.209,8.1257,11.0746,8.2616,18.8672h-4.8625c.9142-19.7157-1.4653-15.754-16.3072-16.1438v16.1438h-4.9055ZM77.7053,285.469c5.1359-.7021,17.592,3.2202,16.8229-7.0673.8117-9.6405-12.2046-5.52-16.8229-6.3531v13.4204Z" fill="#191919"></path><path d="M102.8323,265.6292h26.7635v6.3542h-26.7635v-6.3542ZM113.8047,271.2051h4.8616v36.4373h-4.8616v-36.4373Z" fill="#191919"></path><path d="M133.7261,265.6292h4.9055v42.0132h-4.9055v-42.0132ZM138.0725,283.4587h20.4805v6.2891h-20.4805v-6.2891ZM157.8647,265.6292h4.8625v42.0132h-4.8625v-42.0132Z" fill="#191919"></path><path d="M178.0872,307.6424l-11.1445-42.0132h5.3357l9.466,36.9561h-1.5485l9.0359-36.9561h5.5498l9.0359,36.9561h-1.5485l9.466-36.9561h5.2497l-11.0155,42.0132h-5.7658l-8.9068-36.891h1.4635l-8.9498,36.891h-5.7228Z" fill="#191919"></path><path d="M226.1054,289.7478v11.5404h19.5772v6.3542h-24.4828v-42.0132h24.4398v6.3542h-19.5342v11.6707h16.0061v6.0937h-16.0061Z" fill="#191919"></path><path d="M249.769,293.7031h4.7765c1.665,15.6197,23.0365,6.0882,11.36-2.6266-4.818-1.9503-11.8762-2.8986-14.2858-9.1409-6.8019-19.786,22.729-24.1963,21.3417-3.0152h-4.6895c.7766-12.5229-18.7275-8.0444-10.887,1.9784,4.8328,3.5029,13.3681,2.7469,15.8345,10.081,6.5928,21.7725-23.8704,23.4949-23.4504,2.7233Z" fill="#191919"></path><path d="M276.4885,265.6292h26.7635v6.3542h-26.7635v-6.3542ZM287.461,271.2051h4.8616v36.4373h-4.8616v-36.4373Z" fill="#191919"></path><path d="M317.2784,265.6292h4.9055v42.0132h-4.9055v-42.0132ZM321.6248,283.4587h20.4805v6.2891h-20.4805v-6.2891ZM341.4171,265.6292h4.8625v42.0132h-4.8625v-42.0132Z" fill="#191919"></path><path d="M368.0506,308.4207c-21.6393.8748-21.668-44.4897.0002-43.5685,21.6696-.9508,21.641,44.4747-.0002,43.5685ZM368.0506,301.9373c15.002.7706,14.9666-31.3099,0-30.6019-15.0618-.6786-15.0976,31.3445,0,30.6019Z" fill="#191919"></path><path d="M409.4437,303.8173h-2.1947l14.8017-38.1881h4.8616v42.0132h-4.8616v-31.4442l1.1184.4537-12.1339,30.9905h-5.3357l-12.1339-30.8613,1.1624-.5188v31.3802h-4.9055v-42.0132h4.9055l14.7157,38.1881Z" fill="#191919"></path><path d="M438.5299,289.7478v11.5404h19.5772v6.3542h-24.4828v-42.0132h24.4398v6.3542h-19.5342v11.6707h16.0061v6.0937h-16.0061Z" fill="#191919"></path><path d="M472.6928,307.6424l-11.1445-42.0132h5.3357l9.466,36.9561h-1.5485l9.0359-36.9561h5.5498l9.0359,36.9561h-1.5485l9.466-36.9561h5.2497l-11.0155,42.0132h-5.7658l-8.9068-36.891h1.4635l-8.9498,36.891h-5.7228Z" fill="#191919"></path><path d="M530.8653,308.4207c-21.6393.8748-21.668-44.4897.0002-43.5685,21.6696-.9508,21.641,44.4747-.0002,43.5685ZM530.8653,301.9373c15.002.7706,14.9666-31.3099,0-30.6019-15.0618-.6786-15.0976,31.3445,0,30.6019Z" fill="#191919"></path><path d="M552.6372,307.6424v-42.0132c4.0118.4329,18.4652-1.1376,21.858,1.3294,7.6242,4.5844,6.1848,22.2092-3.6142,22.2703l-.4301-.4537c10.2974-1.209,8.1257,11.0746,8.2616,18.8672h-4.8625c.9142-19.7157-1.4653-15.754-16.3072-16.1438v16.1438h-4.9055ZM557.5428,285.469c5.1359-.7021,17.592,3.2202,16.8229-7.0673.8117-9.6405-12.2046-5.52-16.8229-6.3531v13.4204Z" fill="#191919"></path><path d="M585.2526,265.6292h4.9055v42.0132h-4.9055v-42.0132ZM595.2347,287.2198l-.043-3.5657,17.8137,23.9883h-6.9272l-15.9631-22.0432,14.1555-19.97h6.8422l-15.878,21.5906Z" fill="#191919"></path><path d="M615.5002,293.7031h4.7765c1.665,15.6197,23.0365,6.0882,11.36-2.6266-4.818-1.9503-11.8762-2.8986-14.2858-9.1409-6.8019-19.786,22.729-24.1963,21.3417-3.0152h-4.6895c.7766-12.5229-18.7275-8.0444-10.887,1.9784,4.8328,3.5029,13.3681,2.7469,15.8345,10.081,6.5928,21.7725-23.8704,23.4949-23.4504,2.7233Z" fill="#191919"></path></svg> 