<?xml version="1.0" encoding="UTF-8"?> <svg xmlns="http://www.w3.org/2000/svg" id="Layer_1" version="1.1" viewBox="0 0 1200 1200"><defs><style> .st0 { fill: #8eba3f; } </style></defs><path class="st0" d="M558.2,1140h-208.3c-11.9,0-23.4-4.7-31.8-13.2-8.4-8.4-13.2-19.9-13.2-31.8V105c0-11.9,4.7-23.4,13.2-31.8s19.9-13.2,31.8-13.2h208.3c11.9,0,23.4,4.7,31.8,13.2,8.4,8.4,13.2,19.9,13.2,31.8v990c0,11.9-4.7,23.4-13.2,31.8s-19.9,13.2-31.8,13.2ZM349.8,82.5c-6,0-11.7,2.4-15.9,6.6-4.2,4.2-6.6,9.9-6.6,15.9v990c0,6,2.4,11.7,6.6,15.9,4.2,4.2,9.9,6.6,15.9,6.6h208.3c6,0,11.7-2.4,15.9-6.6,4.2-4.2,6.6-9.9,6.6-15.9V105c0-6-2.4-11.7-6.6-15.9-4.2-4.2-9.9-6.6-15.9-6.6h-208.3Z"></path><path class="st0" d="M592,827.4h-64.8c-6.2,0-11.2-5-11.2-11.2s5-11.2,11.2-11.2h64.8c6.2,0,11.2,5,11.2,11.2s-5,11.2-11.2,11.2Z"></path><path class="st0" d="M592,935.4h-42.8c-6.2,0-11.2-5-11.2-11.2s5-11.2,11.2-11.2h42.8c6.2,0,11.2,5,11.2,11.2s-5,11.2-11.2,11.2Z"></path><path class="st0" d="M592,1043.5h-64.8c-6.2,0-11.2-5-11.2-11.2s5-11.2,11.2-11.2h64.8c6.2,0,11.2,5,11.2,11.2s-5,11.2-11.2,11.2Z"></path><path class="st0" d="M592,503.2h-64.8c-6.2,0-11.2-5-11.2-11.2s5-11.2,11.2-11.2h64.8c6.2,0,11.2,5,11.2,11.2s-5,11.2-11.2,11.2Z"></path><path class="st0" d="M592,611.2h-42.8c-6.2,0-11.2-5-11.2-11.2s5-11.2,11.2-11.2h42.8c6.2,0,11.2,5,11.2,11.2s-5,11.2-11.2,11.2Z"></path><path class="st0" d="M592,719.2h-64.8c-6.2,0-11.2-5-11.2-11.2s5-11.2,11.2-11.2h64.8c6.2,0,11.2,5,11.2,11.2s-5,11.2-11.2,11.2Z"></path><path class="st0" d="M592,179h-64.8c-6.2,0-11.2-5-11.2-11.2s5-11.2,11.2-11.2h64.8c6.2,0,11.2,5,11.2,11.2s-5,11.2-11.2,11.2Z"></path><path class="st0" d="M592,287.1h-42.8c-6.2,0-11.2-5-11.2-11.2s5-11.2,11.2-11.2h42.8c6.2,0,11.2,5,11.2,11.2s-5,11.2-11.2,11.2Z"></path><path class="st0" d="M592,395.1h-64.8c-6.2,0-11.2-5-11.2-11.2s5-11.2,11.2-11.2h64.8c6.2,0,11.2,5,11.2,11.2s-5,11.2-11.2,11.2Z"></path><path class="st0" d="M388.5,190.3c-9.4,0-18.4-3.7-25.1-10.3-6.7-6.6-10.4-15.6-10.4-25.1,0-9.4,3.7-18.4,10.3-25.1,6.6-6.7,15.7-10.4,25.1-10.4,9.4,0,18.4,3.7,25.1,10.4,6.7,6.6,10.4,15.7,10.4,25.1s-3.7,18.4-10.3,25c-6.6,6.6-15.6,10.4-25,10.4ZM388.5,141.9c-3.4,0-6.7,1.3-9.2,3.7-2.5,2.4-3.8,5.7-3.9,9.1,0,3.4,1.3,6.7,3.8,9.2,2.4,2.4,5.7,3.8,9.1,3.8,3.4,0,6.7-1.4,9.2-3.8,2.4-2.4,3.8-5.7,3.8-9.2s-1.3-6.7-3.8-9.1c-2.4-2.4-5.7-3.8-9.1-3.8h0Z"></path><path class="st0" d="M702.3,261.5c-3.8,0-7.4-2-9.5-5.3-2.2-3.4-2.5-7.6-.7-11.2l85.2-174.4c1.5-3.2,3.9-5.8,6.9-7.7s6.4-2.9,9.9-2.9c3.6,0,7.2,1.1,10.2,3.1,3,2,5.4,4.8,6.8,8.2l83.1,173.9c1.8,3.6,1.5,7.9-.7,11.2-2,3.3-5.6,5.3-9.5,5.3l-181.6.8-.2-1ZM794,87.3l-73.6,151.6,146.2-.7-72.7-151Z"></path><path class="st0" d="M698.6,1009.4c-6.2,0-11.2-5-11.2-11.2l3.9-748c0-6.2,5-11.2,11.2-11.2l181.6-.7c3,0,5.8,1.2,8,3.3s3.3,5,3.3,8l-3.9,748c0,3-1.2,5.8-3.3,8s-5,3.3-8,3.3l-181.6.7ZM713.5,261.4l-3.7,725.5h159.1l3.8-725.5h-159.2Z"></path><path class="st0" d="M730.2,1140c-11.6,0-22.8-4.6-30.9-12.9-8.2-8.2-12.8-19.4-12.7-31l.8-98c0-6.2,5-11.2,11.2-11.2l181.5-.9c3,0,5.9,1.2,8,3.4,2.1,2.1,3.4,5,3.4,8l-.9,97.6c.2,11.8-4.4,23.2-12.7,31.7-8.3,8.5-19.6,13.2-31.4,13.3h-116.2ZM709.8,1009.4l-.7,86.8c0,5.6,2.1,11.1,6.1,15.1,4,4,9.4,6.2,15.1,6.2h116c5.9,0,11.5-2.4,15.6-6.7,4.1-4.2,6.3-9.9,6.1-15.8l.7-86.6-158.9,1Z"></path><path class="st0" d="M793.1,145.3c-12.3,0-24.5-2.7-35.7-7.9-2.7-1.3-4.8-3.6-5.9-6.4-1-2.8-.9-6,.4-8.7l25.3-51.8c1.5-3.2,3.9-5.8,6.9-7.7s6.4-2.9,9.9-2.9c3.6,0,7.2,1.1,10.2,3.1,3,2,5.4,4.8,6.8,8.2l24.5,51.3c1.2,2.8,1.2,5.9,0,8.7-1,2.8-3.1,5.1-5.9,6.4-11.5,5.3-24,8.1-36.7,8.2v-.6ZM777.3,120.9c5,1.3,10.2,1.9,15.4,1.9,5.6,0,11.2-.8,16.5-2.2l-15.3-33.2-16.7,33.5Z"></path><path class="st0" d="M794.6,1009.4c-6.2,0-11.2-5-11.2-11.2V249.9c0-6.2,5-11.2,11.2-11.2s11.2,5,11.2,11.2v748.2c0,3-1.2,5.8-3.3,8s-5,3.3-8,3.3Z"></path></svg> 