<?xml version="1.0" encoding="UTF-8"?> <svg xmlns="http://www.w3.org/2000/svg" id="Layer_1" version="1.1" viewBox="0 0 1200 1200"><defs><style> .st0 { fill: #8eba3f; } </style></defs><path class="st0" d="M1135.4,600h-380v-19.2c0-27.5-22.5-49.9-49.9-49.9h-19.2s0-34.5,0-34.5h276.4c9.5,0,17.3-7.8,17.3-17.3V64.5c0-9.5-7.8-17.3-17.3-17.3H254.5c-9.5,0-17.3,7.8-17.3,17.3v414.5c0,9.5,7.8,17.3,17.3,17.3h276.4v34.5h-19.2c-27.6,0-49.9,22.5-49.9,49.9v19.2H64.5c-9.5,0-17.3,7.8-17.3,17.3v345.5c0,9.5,7.8,17.3,17.3,17.3h139.9l13.6,130.9c1.9,23.5,21.6,41.8,45.1,41.8s43.5-18.3,45.4-41.5l13.3-131.3h556.2l13.6,130.9c1.9,23.5,21.8,41.8,45.1,41.8s43.5-18.3,45.4-41.5l13.5-131.3h139.7c9.5,0,17.3-7.8,17.3-17.3v-345.4c0-9.5-7.8-17.3-17.3-17.3h0ZM444.5,807.3h310.9v138.2h-310.9v-138.2ZM755.4,772.7h-310.9v-138.2h310.9v138.2ZM271.8,81.8h673.6v380H271.8V81.8ZM565.4,496.4h86.4v34.5h-86.4v-34.5ZM496.3,580.8c0-8.5,6.9-15.4,15.4-15.4h193.8c8.5,0,15.4,6.9,15.4,15.4v19.2h-224.5v-19.2ZM81.8,634.5h328.2v310.9H81.8v-310.9ZM274,1108.2c-.3,5.7-5.2,10-10.9,10s-10.4-4.5-10.9-10.4l-13.1-127.8h48l-13.1,128.2ZM947.8,1108.2c-.5,5.7-5.2,10-11.1,10s-10.4-4.5-10.9-10.4l-13.1-127.8h48l-13,128.2ZM1118.1,945.5h-328.2v-310.9h328.2v310.9Z"></path><path class="st0" d="M440.4,121.4c-6.7-6.7-17.6-6.7-24.4,0l-106.9,106.9c-6.7,6.7-6.7,17.6,0,24.4,3.5,3.5,7.8,5,12.3,5s8.8-1.7,12.3-5l106.9-106.9c6.6-6.6,6.6-17.6-.2-24.4h0Z"></path><path class="st0" d="M486.7,158.9l-106.9,106.9c-6.7,6.7-6.7,17.6,0,24.4,3.5,3.5,7.8,5,12.3,5s8.8-1.7,12.3-5l106.9-106.9c6.7-6.7,6.7-17.6,0-24.4-6.7-6.7-17.8-6.7-24.5,0h0Z"></path><path class="st0" d="M358.2,824.5c9.5,0,17.3-7.8,17.3-17.3v-34.5c0-9.5-7.8-17.3-17.3-17.3s-17.3,7.8-17.3,17.3v34.5c0,9.5,7.8,17.3,17.3,17.3Z"></path><path class="st0" d="M841.8,824.5c9.5,0,17.3-7.8,17.3-17.3v-34.5c0-9.5-7.8-17.3-17.3-17.3s-17.3,7.8-17.3,17.3v34.5c0,9.5,7.8,17.3,17.3,17.3Z"></path><path class="st0" d="M634.5,686.4h-69.1c-9.5,0-17.3,7.8-17.3,17.3s7.8,17.3,17.3,17.3h69.1c9.5,0,17.3-7.8,17.3-17.3s-7.6-17.3-17.3-17.3h0Z"></path><path class="st0" d="M634.5,859.1h-69.1c-9.5,0-17.3,7.8-17.3,17.3s7.8,17.3,17.3,17.3h69.1c9.5,0,17.3-7.8,17.3-17.3s-7.6-17.3-17.3-17.3h0Z"></path></svg> 