<?xml version="1.0" encoding="UTF-8"?> <svg xmlns="http://www.w3.org/2000/svg" id="Layer_1" version="1.1" viewBox="0 0 1200 1200"><defs><style> .st0 { fill: #8eba3f; } </style></defs><path class="st0" d="M1006.5,48.4H193.4c-24.4,0-44.3,19.8-44.3,44.3v1014.8c0,24.4,19.9,44.2,44.3,44.2h813.1c24.5,0,44.3-19.8,44.3-44.2V92.6c0-24.5-19.8-44.2-44.3-44.2h0ZM193.4,1111.8c-2.4,0-4.3-2.1-4.3-4.3v-141.1h389.3v145.4H193.4ZM1006.5,88.3c2.4,0,4.3,1.9,4.3,4.3v644.5h-389.3V88.3h384.9ZM1010.8,923.1h-389.3v-142.8h389.3v142.8ZM189.1,780.3h389.3v142.8H189.1v-142.8ZM578.4,737.1H189.1V92.6c0-2.4,1.9-4.3,4.3-4.3h384.9v648.8ZM621.6,966.3h389.3v141.1c0,2.3-1.9,4.3-4.3,4.3h-385s0-145.5,0-145.5Z"></path><path class="st0" d="M248.8,529.5h272.6c11.9,0,21.6-9.6,21.6-21.6V158.8c0-12-9.7-21.6-21.6-21.6H248.8c-12,0-21.6,9.6-21.6,21.6v349.1c0,12,9.6,21.6,21.6,21.6h0ZM270.4,180.4h229.4v305.9h-229.5V180.4Z"></path><path class="st0" d="M248.8,703.1h272.6c11.9,0,21.6-9.7,21.6-21.6v-98.8c0-11.9-9.7-21.6-21.6-21.6H248.8c-12,0-21.6,9.8-21.6,21.7v98.8c0,11.9,9.6,21.6,21.6,21.6h0ZM270.4,604.3h229.4v55.5h-229.5v-55.5Z"></path><path class="st0" d="M681.9,703.1h272.6c11.9,0,21.6-9.7,21.6-21.6v-98.8c0-11.9-9.7-21.6-21.6-21.6h-272.6c-12,0-21.6,9.8-21.6,21.7v98.8c0,11.9,9.6,21.6,21.6,21.6h0ZM703.5,604.3h229.5v55.5h-229.5v-55.5Z"></path><path class="st0" d="M681.9,529.5h272.6c11.9,0,21.6-9.6,21.6-21.6V158.8c0-12-9.7-21.6-21.6-21.6h-272.7c-12,0-21.6,9.6-21.6,21.6v349.1c0,12,9.6,21.6,21.6,21.6h0ZM703.5,180.4h229.5v305.9h-229.5V180.4Z"></path><path class="st0" d="M385.1,824.8c-15.1,0-27.2,12.1-27.2,27.2s12.1,27.2,27.2,27.2,27.2-12.2,27.2-27.2-12.2-27.2-27.2-27.2Z"></path><path class="st0" d="M385.1,1009.7c-15.1,0-27.2,12.2-27.2,27.2s12.1,27.4,27.2,27.4,27.2-12.2,27.2-27.4-12.2-27.2-27.2-27.2h0Z"></path><path class="st0" d="M818.3,879.2c15,0,27.2-12.2,27.2-27.2s-12.2-27.2-27.2-27.2-27.2,12.1-27.2,27.2,12.2,27.2,27.2,27.2Z"></path><path class="st0" d="M818.3,1009.7c-15,0-27.2,12.2-27.2,27.2s12.2,27.4,27.2,27.4,27.2-12.2,27.2-27.4-12.2-27.2-27.2-27.2h0Z"></path></svg> 