<?xml version="1.0" encoding="UTF-8"?> <svg xmlns="http://www.w3.org/2000/svg" id="Layer_1" version="1.1" viewBox="0 0 1200 1200"><defs><style> .st0 { fill: #8eba3f; fill-rule: evenodd; } </style></defs><path class="st0" d="M605.3,656.5l-252.8,438c-11.8,20.4-31.3,35.4-54.1,41.5s-47.2,2.9-67.6-8.9c-42.6-24.6-57.2-79.1-32.6-121.7l369.6-640.1c6.8-11.8,18.1-20.5,31.3-24,8.6-2.3,17.5-2.3,26-.2l12.7-22c6.8-11.8,18.1-20.5,31.3-24,13.2-3.6,27.3-1.7,39.1,5.2l32.5,18.8c24.7,14.2,33.1,45.8,18.9,70.4l-11.7,20.3,40.6,23.4,79.7-138-150.2-86.7c-24.7-14.2-33.1-45.8-18.8-70.4l18.8-32.5c11.8-20.4,31.2-35.4,54-41.5,22.8-6.1,47.1-2.9,67.5,8.9l129.9,75c42.6,24.6,57.2,79.1,32.6,121.7l-132.4,229.4c11.6,25.3,11.2,55.7-3.8,81.7l-31.5,54.5c15.7,16.1,19.5,41.3,7.7,61.7l-18.8,32.5c-6.8,11.8-18.1,20.5-31.3,24-13.2,3.6-27.3,1.7-39.1-5.2l-20.3-11.7-58.6,101.5c-4.4,7.5-11.5,13-19.9,15.3-8.4,2.2-17.3,1.1-24.9-3.3l-32.5-18.8c-15.7-9.1-21-29.2-12-44.8l58.6-101.5-20.3-11.7c-7.3-4.2-13.2-9.9-17.5-16.6h0ZM937,232.1l-124.2,215.2,20.3,11.7c7,4.1,13.3,8.9,18.8,14.4l125.8-217.9c16.8-29.2,6.8-66.4-22.3-83.2l-129.9-75c-14-8.1-30.6-10.3-46.2-6.1-11,3-20.9,8.9-28.5,17.1l181.3,104.6c6.8,3.9,9,12.5,5.2,19.2h0ZM667.4,698.9l-58.6,101.5c-1.3,2.2-.5,5.1,1.7,6.4l32.5,18.8c1.1.6,2.3.8,3.6.5s2.2-1.1,2.9-2.2l58.6-101.5-40.6-23.4h0ZM723.4,395.7l11.7-20.3c6.5-11.2,2.6-25.5-8.6-32l-32.5-18.8c-5.4-3.1-11.8-3.9-17.8-2.3s-11.2,5.5-14.2,10.9l-11.7,20.3,73.1,42.2ZM624.1,370.8c-5.4-3.1-11.8-3.9-17.8-2.3s-11.2,5.5-14.2,10.9L222.5,1019.5c-16.8,29.2-6.8,66.4,22.3,83.2,14,8.1,30.7,10.3,46.3,6.1,15.6-4.2,28.9-14.4,37-28.4l294.6-510.2c6.8-11.8,18.1-20.5,31.3-24,13.2-3.6,27.3-1.7,39.1,5.2l117.8,68,30.5-52.8c16.8-29.2,6.8-66.4-22.3-83.2l-194.9-112.5h0ZM413.1,783.1c3.9-6.8,12.5-9,19.2-5.2,6.7,3.9,9,12.5,5.2,19.2l-150,259.8c-3.9,6.7-12.5,9-19.2,5.2-6.8-3.9-9-12.5-5.2-19.2l150-259.8ZM735.1,131.7l-11.7,20.3c-6.5,11.2-2.6,25.5,8.6,32l150.2,86.7,23.4-40.6-170.5-98.4ZM636.8,648.8l129.9,75c5.4,3.1,11.8,3.9,17.8,2.3s11.1-5.5,14.2-10.9l18.8-32.5c6.5-11.2,2.6-25.5-8.6-32l-129.9-75c-5.4-3.1-11.8-3.9-17.8-2.3s-11.1,5.5-14.2,10.9l-18.8,32.5c-6.5,11.2-2.6,25.5,8.6,32Z"></path></svg> 