<?xml version="1.0" encoding="UTF-8"?> <svg xmlns="http://www.w3.org/2000/svg" id="Layer_1" version="1.1" viewBox="0 0 1200 1200"><defs><style> .st0 { fill: #8eba3f; } </style></defs><path class="st0" d="M892.5,184.4c-15,.5-30,4.5-43.7,12.3l-347.8,201c-31,18-47.9,51.3-46.5,85l-353.6,204.3-51.7,29.9h0c-4.1,2.4-6.7,6.7-7,11.4-.3,4.7,1.8,9.2,5.6,12.1l52,38.9c4.5,3.4,10.6,3.8,15.5.9l43.6-25.2,27.5,20.6-33.2,19.2h0c-4.1,2.3-6.7,6.6-7,11.3-.3,4.7,1.8,9.3,5.6,12.1l52,38.9h0c4.5,3.4,10.5,3.8,15.4.9l43.6-25.2,27.5,20.6-33.2,19.2h0c-4.1,2.4-6.7,6.6-7,11.3-.3,4.7,1.8,9.2,5.6,12.1l52,38.9h0c4.5,3.4,10.5,3.8,15.4.9l43.6-25.2,27.5,20.6-33.2,19.2h0c-4.1,2.4-6.8,6.7-7,11.4-.3,4.7,1.8,9.2,5.6,12.1l52,38.9c4.5,3.4,10.6,3.8,15.5.9l103.4-59.7h0c4.1-2.4,6.7-6.7,7-11.4.3-4.7-1.8-9.2-5.6-12.1l-34.9-26.2,25.2-14.5,44.5,33.4c4.5,3.4,10.6,3.8,15.5.9l51.7-29.9c4.1-2.4,6.8-6.7,7-11.3.3-4.7-1.8-9.3-5.6-12.1l-34.9-26.2,25.2-14.6,44.6,33.4h0c4.5,3.4,10.6,3.7,15.5.9l51.7-29.9h0c4.1-2.3,6.7-6.6,7-11.3.3-4.7-1.8-9.3-5.6-12.1l-34.9-26.2,25.2-14.6,44.6,33.4h0c4.5,3.3,10.6,3.7,15.5.9l51.7-29.9c4.1-2.3,6.8-6.6,7-11.3.3-4.7-1.8-9.2-5.6-12.1l-34.9-26.2,25.2-14.6,44.5,33.4c4.5,3.4,10.6,3.8,15.5.9l51.7-29.9h0c4.1-2.3,6.7-6.6,7-11.3.3-4.7-1.8-9.2-5.6-12.1l-34.9-26.2,25.2-14.5,44.6,33.4h0c4.5,3.4,10.6,3.7,15.5.9l51.7-29.9h0c4.1-2.3,6.8-6.6,7-11.3.3-4.7-1.8-9.3-5.6-12.1l-34.9-26.2,25.2-14.5,44.6,33.4h0c4.5,3.4,10.6,3.7,15.5.9l51.7-29.9h0c4.1-2.3,6.7-6.6,7-11.3s-1.8-9.2-5.6-12.1l-252.1-188.8,42.4-24.5c44.4-25.7,59.8-83.2,34.4-127.6,0,0,0-.2,0-.3h0s0,0,0,0c-18-31.2-51.2-47.6-84.2-46.6h0ZM893.3,212.5c23.2-.7,46.3,10.6,59,32.6h0c18,31.3,7.2,71.6-24,89.6l-347.8,200.9c-16.3,9.4-35,10.8-51.8,5.6l3.6-2.1c20.9-12,28.1-39.1,16-60-7.5-13-20.9-20.8-35-21.8-8.4-.6-17.2,1.2-25,5.8h0s0,0,0,0l-3.6,2.1c3.5-17.5,13.6-33.5,30.2-43.1l347.8-201h0c9.5-5.4,19.9-8.3,30.5-8.6h0ZM873.6,398.8l244.7,183.2-25.2,14.6-44.6-33.4h0c-4.5-3.3-10.6-3.7-15.5-.9l-51.7,29.9c-4.1,2.3-6.8,6.6-7,11.3-.3,4.7,1.8,9.3,5.6,12.1l34.9,26.2-25.2,14.6-44.5-33.4c-4.5-3.4-10.6-3.8-15.5-.9l-51.7,29.9h0c-4.1,2.3-6.7,6.6-7,11.3-.3,4.7,1.8,9.3,5.6,12.1l34.9,26.2-25.2,14.6-44.6-33.4h0c-4.5-3.4-10.6-3.7-15.5-.9l-51.7,29.9c-4.1,2.3-6.7,6.6-7,11.3-.3,4.7,1.8,9.2,5.6,12.1l34.9,26.2-25.2,14.6-44.6-33.4h0c-4.5-3.4-10.5-3.8-15.4-1l-51.7,29.9h0c-4.1,2.3-6.7,6.6-7,11.3-.3,4.7,1.8,9.2,5.6,12.1l34.9,26.2-25.2,14.5-44.6-33.4c-4.5-3.4-10.6-3.8-15.5-.9l-51.7,29.9c-4.1,2.3-6.8,6.6-7,11.3s1.8,9.3,5.6,12.1l34.9,26.2-25.2,14.5-44.6-33.4h0c-4.5-3.4-10.6-3.7-15.4-.9l-51.7,29.9h0c-4.1,2.3-6.7,6.6-7,11.3-.3,4.7,1.8,9.2,5.6,12l34.9,26.2-76.9,44.4-27.5-20.6,33.2-19.2h0c4.1-2.4,6.7-6.7,7-11.4.3-4.7-1.8-9.2-5.6-12.1l-52-38.9c-4.5-3.4-10.6-3.8-15.5-.9l-43.6,25.2-27.5-20.6,33.2-19.2c4.1-2.3,6.8-6.6,7-11.3.3-4.7-1.8-9.2-5.6-12.1l-52-38.9h0c-4.5-3.4-10.5-3.8-15.4-.9l-43.6,25.2-27.5-20.6,33.2-19.2c4.1-2.4,6.7-6.7,7-11.3s-1.8-9.2-5.6-12.1l-52-38.9h0c-4.5-3.4-10.5-3.8-15.4-.9l-43.6,25.2-27.5-20.6,33.2-19.2,306.5-177c-1.6,7.3-2.4,14.9-2.4,22.9v152.9l-77.3,44.6h0c-4.1,2.4-6.7,6.7-7,11.3-.3,4.7,1.8,9.3,5.6,12.1l52,38.9h0c4.5,3.4,10.6,3.8,15.4.9l76.4-44.2,408.7-236.2h0c4.1-2.4,6.8-6.7,7-11.3.3-4.7-1.8-9.3-5.6-12.1l-52-38.9c-4.5-3.4-10.6-3.8-15.5-.9l-320.1,184.9v-96.7c27.1,13.2,60,13.2,87.9-2.9l278.9-161.1ZM509.3,485.3c.8,0,1.5,0,2.2,0,5.1.4,9.8,3,12.6,7.8,4.5,7.7,1.9,17.1-5.8,21.6l-32.7,18.9h0c-4.4,2.6-7,7.2-7,12.2v138c0,5,2.7,9.7,7,12.2,4.4,2.5,9.7,2.5,14.1,0l333.1-192.5,27.5,20.6-390.3,225.5-68.4,39.6-27.5-20.6,65.9-38.1h0c4.4-2.6,7-7.2,7-12.2v-161.1c0-27,5-38.8,29.8-54.8h0c1.2-.8,1.5-1,1.5-1h0s24.1-14,24.1-14c2.2-1.3,4.4-1.9,6.7-2.1h0Z"></path></svg> 