<?xml version="1.0" encoding="UTF-8"?> <svg xmlns="http://www.w3.org/2000/svg" id="Layer_1" version="1.1" viewBox="0 0 1200 1200"><defs><style> .st0 { fill: #8eba3f; } </style></defs><path class="st0" d="M1123.2,93.8h-50.6v-16.9c0-9.3-7.6-16.9-16.9-16.9s-16.9,7.6-16.9,16.9v16.9h-50.6v-16.9c0-9.3-7.6-16.9-16.9-16.9s-16.9,7.6-16.9,16.9v16.9h-50.6v-16.9c0-9.3-7.6-16.9-16.9-16.9s-16.9,7.6-16.9,16.9v16.9h-50.6v-16.9c0-9.3-7.6-16.9-16.9-16.9s-16.9,7.6-16.9,16.9v16.9h-50.6v-16.9c0-9.3-7.6-16.9-16.9-16.9s-16.9,7.6-16.9,16.9v16.9H76.9c-9.3,0-16.9,7.6-16.9,16.9s7.6,16.9,16.9,16.9h624.4v16.9h-33.8c-9.3,0-16.9,7.6-16.9,16.9v541.4c-144.1,18.6-294.8-1.9-426.3-57.7l-54.7-23.3V254.1c0-37.3,30.2-67.5,67.5-67.5s67.5,30.2,67.5,67.5.2.7.2,1c-20.6,11.8-36.4,30-44.7,52.7-7.6,21.1-8.1,43.5-1.5,64.5-3.9,4.1-6.8,8.9-8.8,14.3-3.9,10.6-3.4,22.1,1.3,32.2,7.1,15.4,22.4,24.3,38.3,24.3s12-1.3,17.7-3.9l152.9-71.4c21.1-9.8,30.2-34.9,20.4-56-4.7-10.3-13.2-17.9-23.8-21.8-5.4-2-11-2.7-16.5-2.5-22.3-34.4-62.9-51.8-102.6-44.7-5.6-50.5-48.6-89.9-100.6-89.9s-101.2,45.4-101.2,101.2v353.2l-7.8-3.2c-24-10.1-52.5,0-63.6,22.8-5.4,11.1-6.1,23.6-1.7,35.3,4.1,10.8,12.3,19.6,22.8,25v.3l50.8,274.2c8.9,42.9,41,76.1,81.3,88.6l-14,69.7c-1,4.9.3,10.1,3.5,14s7.9,6.2,13,6.2h33.8c6.9,0,13.2-4.2,15.7-10.6l29.5-73.7h297.8l29.5,73.7c2.5,6.4,8.8,10.6,15.7,10.6h33.8c5.1,0,9.8-2.2,13-6.2,3.2-3.9,4.6-9.1,3.5-14v-.5l29.9-37,28.7,35.4c6.4,7.9,16,12.5,26.2,12.5s19.7-4.6,26.3-12.5l28.7-35.3,28.5,34.9c6.4,8.1,16,12.7,26.3,12.7s19.9-4.6,26.3-12.5l28.5-35.1,28.5,34.9c6.4,8.1,16,12.7,26.2,12.7s19.7-4.6,26.2-12.5l28.7-35.1,41.7,51.3c3.2,4.1,8.1,6.2,13.2,6.2s3.7-.3,5.6-1c6.8-2.4,11.3-8.8,11.3-15.9V161.3c0-9.3-7.6-16.9-16.9-16.9h-33.8v-16.9h50.6c9.3,0,16.9-7.6,16.9-16.9s-7.6-16.9-16.9-16.9h0ZM446.1,337.3l-152.9,71.4c-4.2,2-9.3,0-11.3-4.1s-.7-5.2-.3-6.4,1.7-3.5,4.4-4.7l152.9-71.4c1.4-.7,2.5-.8,3.5-.8s2.2.3,2.9.5c1.2.5,3.5,1.7,4.7,4.4,2,4.2,0,9.3-4.1,11.1h.2ZM355.3,274.8c19.9,0,39.3,8.9,52.1,24.6l-118.5,55.2c-2.2-11.8-1.2-24,3-35.4,6.2-16.9,18.6-30.5,34.9-38.1,9.3-4.2,18.9-6.2,28.3-6.2h0ZM954.4,127.5v16.9h-50.6v-16.9h50.6ZM870,127.5v16.9h-50.6v-16.9h50.6ZM735,127.5h50.6v16.9h-50.6v-16.9ZM95,641.7c2.4-4.9,7.9-7.9,13.7-7.9s4.4.3,6.4,1.4l96.2,40.8c135.5,57.7,290.8,79,439.4,60.8v25.8c-151,18.1-312.7-4.4-452.4-63.6l-96.2-41c-3.7-1.5-6.4-4.2-7.6-7.6-.7-2-1.4-5.1.5-8.6h0ZM169.5,955.1l-46.6-251.6,62.1,26.5c111.9,47.4,236.6,72.6,360.3,72.6s70.7-2.2,105.3-6.1v225.5H252.1c-39.8,0-74.4-28.2-82.5-66.8h0ZM242.6,1106.3h-1.7l10.1-50.6h11.8l-20.2,50.6ZM633.4,1055.6h11.8l5.4,27v16.2l-17.2-43.2ZM1089.4,178.1v897.4l-11.6-14.3c-6.4-8.1-16-12.7-26.3-12.7s-19.7,4.6-26.2,12.5l-3.5,4.2v-448.5c0-9.3-7.6-16.9-16.9-16.9s-16.9,7.6-16.9,16.9v469l-20.1-24.5c-6.4-8.1-16-12.7-26.3-12.7s-19.7,4.6-26.2,12.5l-11.8,14.5V397.5c0-9.3-7.6-16.9-16.9-16.9s-16.9,7.6-16.9,16.9v677.9l-11.5-14.2c-6.4-8.1-16-12.7-26.3-12.7s-19.9,4.6-26.3,12.7l-20.2,25v-131.8c0-9.3-7.6-16.9-16.9-16.9s-16.9,7.6-16.9,16.9v110.7l-3.4-4c-6.4-7.9-16-12.5-26.2-12.5s-19.7,4.6-26.2,12.5l-11.8,14.7V178.1h405.2ZM1038.8,144.4h-50.6v-16.9h50.6v16.9Z"></path><path class="st0" d="M768.7,714.6c9.3,0,16.9-7.6,16.9-16.9v-165.2c0-9.3-7.6-16.9-16.9-16.9s-16.9,7.6-16.9,16.9v165.2c0,9.3,7.6,16.9,16.9,16.9Z"></path><path class="st0" d="M768.7,870c9.3,0,16.9-7.6,16.9-16.9v-94.7c0-9.3-7.6-16.9-16.9-16.9s-16.9,7.6-16.9,16.9v94.7c0,9.3,7.6,16.9,16.9,16.9Z"></path><path class="st0" d="M1005,380.6c9.3,0,16.9-7.6,16.9-16.9v-84.4c0-9.3-7.6-16.9-16.9-16.9s-16.9,7.6-16.9,16.9v84.4c0,9.3,7.6,16.9,16.9,16.9Z"></path><path class="st0" d="M1005,566.3c9.3,0,16.9-7.6,16.9-16.9v-67.5c0-9.3-7.6-16.9-16.9-16.9s-16.9,7.6-16.9,16.9v67.5c0,9.3,7.6,16.9,16.9,16.9Z"></path><path class="st0" d="M360.9,482.7l-4.1-16.4c-2.2-9.1-11.3-14.5-20.4-12.3s-14.7,11.3-12.3,20.4l4.1,16.4c1.9,7.8,8.8,12.8,16.4,12.8s2.7,0,4.1-.5c9.1-2.2,14.7-11.3,12.3-20.4h0Z"></path><path class="st0" d="M344.5,558c1.9,7.8,8.8,12.8,16.4,12.8s2.7,0,4-.5c9.1-2.2,14.7-11.3,12.3-20.4l-4.1-16.4c-2.2-9.1-11.3-14.5-20.4-12.3s-14.7,11.3-12.3,20.4l4,16.4Z"></path><path class="st0" d="M476.5,403.2c-5.6-7.4-16-9.1-23.6-3.5-7.4,5.6-9.1,16-3.5,23.6l10,13.7c3.4,4.6,8.4,6.9,13.7,6.9s6.9-1,10-3.2c7.4-5.6,9.1-16,3.5-23.6l-10-13.7v-.2Z"></path><path class="st0" d="M500.3,492.5c3.4,4.6,8.4,6.9,13.7,6.9s6.9-1,10-3.2c7.4-5.6,9.1-16,3.5-23.6l-10-13.7c-5.6-7.4-16-9.1-23.6-3.5-7.4,5.6-9.1,16-3.5,23.6l10,13.7v-.2Z"></path><path class="st0" d="M420.6,442.4l-3.5-7.6c-3.9-8.4-14-12.1-22.4-8.1-8.4,3.9-12.1,14-8.1,22.4l3.5,7.6c2.9,6.1,8.9,9.8,15.4,9.8s4.7-.5,7.1-1.5c8.4-3.9,12.1-14,8.1-22.4v-.2Z"></path><path class="st0" d="M413.4,506.7c2.9,6.1,8.9,9.8,15.4,9.8s4.9-.5,7.1-1.5c8.4-3.9,12.1-14,8.1-22.4l-3.9-8.3c-3.9-8.4-14-12.1-22.4-8.1-8.4,3.9-12.1,14-8.1,22.4l3.9,8.3v-.2Z"></path><path class="st0" d="M436.3,556c2.9,6.1,8.9,9.8,15.4,9.8s4.9-.5,7.1-1.5c8.4-3.9,12.1-14,8.1-22.4l-3.5-7.6c-3.9-8.4-14-12.2-22.4-8.1-8.4,3.9-12.1,14-8.1,22.4l3.5,7.6v-.2Z"></path></svg> 