<svg xmlns="http://www.w3.org/2000/svg" width="680" height="430" viewBox="0 0 680 430">
  <!-- Header -->
  <rect x="0" y="0" width="680" height="60" fill="#7a6b5c" opacity="0.09"/>
  <rect x="0" y="0" width="6" height="430" fill="#7a6b5c"/>
  <text x="340" y="22" text-anchor="middle" font-family="Arial,sans-serif" font-size="11" font-weight="500" fill="#5a4f43" letter-spacing="2">NW HOMEWORKS</text>
  <text x="340" y="45" text-anchor="middle" font-family="Arial,sans-serif" font-size="17" font-weight="700" fill="#3a3a3a">Seattle kitchen remodel &#x2014; what needs a permit?</text>

  <!-- Column headers -->
  <rect x="24" y="68" width="304" height="32" rx="6" fill="#7a6b5c" opacity="0.15"/>
  <text x="176" y="89" text-anchor="middle" font-family="Arial,sans-serif" font-size="12" font-weight="700" fill="#5a4f43">Permit required</text>
  <rect x="348" y="68" width="308" height="32" rx="6" fill="#8eba3f" opacity="0.15"/>
  <text x="502" y="89" text-anchor="middle" font-family="Arial,sans-serif" font-size="12" font-weight="700" fill="#5a7a25">No permit needed</text>

  <!-- Divider -->
  <line x1="340" y1="68" x2="340" y2="380" stroke="#e0e0e0" stroke-width="1" stroke-dasharray="4 4"/>

  <!-- PERMIT REQUIRED rows -->
  <rect x="24" y="108" width="304" height="42" rx="6" fill="#f9f6f3" stroke="#d4c4b4" stroke-width="0.5"/>
  <rect x="32" y="120" width="18" height="18" rx="3" fill="#7a6b5c"/>
  <text x="41" y="133" text-anchor="middle" font-family="Arial,sans-serif" font-size="11" font-weight="700" fill="white">!</text>
  <text x="60" y="126" font-family="Arial,sans-serif" font-size="12" font-weight="600" fill="#3a3a3a">Removing load-bearing walls</text>
  <text x="60" y="141" font-family="Arial,sans-serif" font-size="10" fill="#7a6b5c">Structural changes to framing or support</text>

  <rect x="24" y="158" width="304" height="42" rx="6" fill="#f9f6f3" stroke="#d4c4b4" stroke-width="0.5"/>
  <rect x="32" y="170" width="18" height="18" rx="3" fill="#7a6b5c"/>
  <text x="41" y="183" text-anchor="middle" font-family="Arial,sans-serif" font-size="11" font-weight="700" fill="white">!</text>
  <text x="60" y="176" font-family="Arial,sans-serif" font-size="12" font-weight="600" fill="#3a3a3a">Electrical panel upgrade</text>
  <text x="60" y="191" font-family="Arial,sans-serif" font-size="10" fill="#7a6b5c">New circuits, significant rewiring</text>

  <rect x="24" y="208" width="304" height="42" rx="6" fill="#f9f6f3" stroke="#d4c4b4" stroke-width="0.5"/>
  <rect x="32" y="220" width="18" height="18" rx="3" fill="#7a6b5c"/>
  <text x="41" y="233" text-anchor="middle" font-family="Arial,sans-serif" font-size="11" font-weight="700" fill="white">!</text>
  <text x="60" y="226" font-family="Arial,sans-serif" font-size="12" font-weight="600" fill="#3a3a3a">Moving plumbing drain lines</text>
  <text x="60" y="241" font-family="Arial,sans-serif" font-size="10" fill="#7a6b5c">Relocating sink to island or new wall</text>

  <rect x="24" y="258" width="304" height="42" rx="6" fill="#f9f6f3" stroke="#d4c4b4" stroke-width="0.5"/>
  <rect x="32" y="270" width="18" height="18" rx="3" fill="#7a6b5c"/>
  <text x="41" y="283" text-anchor="middle" font-family="Arial,sans-serif" font-size="11" font-weight="700" fill="white">!</text>
  <text x="60" y="276" font-family="Arial,sans-serif" font-size="12" font-weight="600" fill="#3a3a3a">New lighting rough-in circuits</text>
  <text x="60" y="291" font-family="Arial,sans-serif" font-size="10" fill="#7a6b5c">Recessed cans, under-cabinet hardwired</text>

  <!-- NO PERMIT rows -->
  <rect x="348" y="108" width="308" height="42" rx="6" fill="#f7f9f2" stroke="#d4e4a8" stroke-width="0.5"/>
  <rect x="356" y="120" width="18" height="18" rx="3" fill="#8eba3f"/>
  <text x="365" y="133" text-anchor="middle" font-family="Arial,sans-serif" font-size="13" font-weight="700" fill="white">&#x2713;</text>
  <text x="384" y="126" font-family="Arial,sans-serif" font-size="12" font-weight="600" fill="#3a3a3a">New cabinets in same footprint</text>
  <text x="384" y="141" font-family="Arial,sans-serif" font-size="10" fill="#7a6b5c">No layout or structural changes</text>

  <rect x="348" y="158" width="308" height="42" rx="6" fill="#f7f9f2" stroke="#d4e4a8" stroke-width="0.5"/>
  <rect x="356" y="170" width="18" height="18" rx="3" fill="#8eba3f"/>
  <text x="365" y="183" text-anchor="middle" font-family="Arial,sans-serif" font-size="13" font-weight="700" fill="white">&#x2713;</text>
  <text x="384" y="176" font-family="Arial,sans-serif" font-size="12" font-weight="600" fill="#3a3a3a">Countertops and backsplash</text>
  <text x="384" y="191" font-family="Arial,sans-serif" font-size="10" fill="#7a6b5c">Swap or upgrade any material</text>

  <rect x="348" y="208" width="308" height="42" rx="6" fill="#f7f9f2" stroke="#d4e4a8" stroke-width="0.5"/>
  <rect x="356" y="220" width="18" height="18" rx="3" fill="#8eba3f"/>
  <text x="365" y="233" text-anchor="middle" font-family="Arial,sans-serif" font-size="13" font-weight="700" fill="white">&#x2713;</text>
  <text x="384" y="226" font-family="Arial,sans-serif" font-size="12" font-weight="600" fill="#3a3a3a">Appliance swap</text>
  <text x="384" y="241" font-family="Arial,sans-serif" font-size="10" fill="#7a6b5c">Like-for-like replacement, same location</text>

  <rect x="348" y="258" width="308" height="42" rx="6" fill="#f7f9f2" stroke="#d4e4a8" stroke-width="0.5"/>
  <rect x="356" y="270" width="18" height="18" rx="3" fill="#8eba3f"/>
  <text x="365" y="283" text-anchor="middle" font-family="Arial,sans-serif" font-size="13" font-weight="700" fill="white">&#x2713;</text>
  <text x="384" y="276" font-family="Arial,sans-serif" font-size="12" font-weight="600" fill="#3a3a3a">Paint, flooring, cosmetic updates</text>
  <text x="384" y="291" font-family="Arial,sans-serif" font-size="10" fill="#7a6b5c">No structural or utility changes</text>

  <!-- Pro tip banner -->
  <rect x="24" y="316" width="632" height="44" rx="8" fill="#5e9ab2" opacity="0.1" stroke="#5e9ab2" stroke-width="0.5"/>
  <text x="340" y="334" text-anchor="middle" font-family="Arial,sans-serif" font-size="11" font-weight="700" fill="#3a6e87">Pro tip: Your contractor should handle all permit applications</text>
  <text x="340" y="350" text-anchor="middle" font-family="Arial,sans-serif" font-size="10" fill="#7a6b5c">Electrical and plumbing permits are often pulled same-day. Structural permits: allow 2&#x2013;4 weeks for Seattle DCI approval.</text>

  <!-- Footer -->
  <text x="340" y="390" text-anchor="middle" font-family="Arial,sans-serif" font-size="10" fill="#8a8880">nwhomeworks.com · (253) 448-9462 · Serving greater Seattle and Puget Sound</text>
</svg>
